<?xml version="1.0" encoding="utf-8" standalone="no"?>
<!DOCTYPE svg PUBLIC "-//W3C//DTD SVG 1.1//EN"
  "http://www.w3.org/Graphics/SVG/1.1/DTD/svg11.dtd">
<svg xmlns:xlink="http://www.w3.org/1999/xlink" width="460.8pt" height="345.6pt" viewBox="0 0 460.8 345.6" xmlns="http://www.w3.org/2000/svg" version="1.1">
 <metadata>
  <rdf:RDF xmlns:dc="http://purl.org/dc/elements/1.1/" xmlns:cc="http://creativecommons.org/ns#" xmlns:rdf="http://www.w3.org/1999/02/22-rdf-syntax-ns#">
   <cc:Work>
    <dc:type rdf:resource="http://purl.org/dc/dcmitype/StillImage"/>
    <dc:date>2024-02-21T15:03:51.490976</dc:date>
    <dc:format>image/svg+xml</dc:format>
    <dc:creator>
     <cc:Agent>
      <dc:title>Matplotlib v3.6.3, https://matplotlib.org/</dc:title>
     </cc:Agent>
    </dc:creator>
   </cc:Work>
  </rdf:RDF>
 </metadata>
 <defs>
  <style type="text/css">*{stroke-linejoin: round; stroke-linecap: butt}</style>
 </defs>
 <g id="figure_1">
  <g id="patch_1">
   <path d="M 0 345.6 
L 460.8 345.6 
L 460.8 0 
L 0 0 
z
" style="fill: #ffffff"/>
  </g>
  <g id="axes_1">
   <g id="patch_2">
    <path d="M 68.246036 263.63469 
L 450 263.63469 
L 450 36.210148 
L 68.246036 36.210148 
z
" style="fill: #ffffff"/>
   </g>
   <g id="PolyCollection_1">
    <path d="M 68.246036 263.63469 
L 68.246036 263.63469 
L 71.716527 280.347424 
L 75.187017 263.63469 
L 78.657508 253.184154 
L 82.127998 245.297494 
L 85.598489 238.815694 
L 89.06898 233.222498 
L 92.53947 228.242519 
L 96.009961 223.711376 
L 99.480451 219.523041 
L 102.950942 215.605115 
L 106.421432 211.905963 
L 109.891923 208.387458 
L 113.362414 205.020645 
L 116.832904 201.783018 
L 120.303395 198.656736 
L 123.773885 195.627415 
L 127.244376 192.68329 
L 130.714867 189.814618 
L 134.185357 187.013234 
L 137.655848 184.272232 
L 141.126338 181.585717 
L 144.596829 178.948619 
L 148.067319 176.356542 
L 151.53781 173.805652 
L 155.008301 171.292587 
L 158.478791 168.814379 
L 161.949282 166.368394 
L 165.419772 163.952291 
L 168.890263 161.56397 
L 172.360754 159.201547 
L 175.831244 156.863325 
L 179.301735 154.547765 
L 182.772225 152.253473 
L 186.242716 149.97918 
L 189.713206 147.723724 
L 193.183697 145.486046 
L 196.654188 143.26517 
L 200.124678 141.060201 
L 203.595169 138.870311 
L 207.065659 136.694738 
L 210.53615 134.532773 
L 214.006641 132.383762 
L 217.477131 130.247095 
L 220.947622 128.122203 
L 224.418112 126.008558 
L 227.888603 123.905665 
L 231.359093 121.813061 
L 234.829584 119.730315 
L 238.300075 117.657017 
L 241.770565 115.592788 
L 245.241056 113.537268 
L 248.711546 111.490119 
L 252.182037 109.451021 
L 255.652527 107.419674 
L 259.123018 105.395793 
L 262.593509 103.379109 
L 266.063999 101.369367 
L 269.53449 99.366327 
L 273.00498 97.369758 
L 276.475471 95.379443 
L 279.945962 93.395176 
L 283.416452 91.41676 
L 286.886943 89.444007 
L 290.357433 87.476739 
L 293.827924 85.514786 
L 297.298414 83.557986 
L 300.768905 81.606184 
L 304.239396 79.659232 
L 307.709886 77.716987 
L 311.180377 75.779315 
L 314.650867 73.846086 
L 318.121358 71.917176 
L 321.591849 69.992465 
L 325.062339 68.071839 
L 328.53283 66.155189 
L 332.00332 64.242409 
L 335.473811 62.333398 
L 338.944301 60.428058 
L 342.414792 58.526297 
L 345.885283 56.628024 
L 349.355773 54.733152 
L 352.826264 52.841598 
L 356.296754 50.953282 
L 359.767245 49.068126 
L 363.237735 47.186055 
L 366.708226 45.306998 
L 370.178717 43.430883 
L 373.649207 41.557645 
L 377.119698 39.687218 
L 380.590188 37.819539 
L 384.060679 35.954547 
L 387.53117 34.092185 
L 391.00166 32.232394 
L 394.472151 30.37512 
L 397.942641 28.52031 
L 401.413132 26.667912 
L 404.883622 24.817877 
L 408.354113 22.970154 
L 411.824604 21.124699 
L 415.295094 19.281464 
L 418.765585 17.440407 
L 422.236075 15.601483 
L 425.706566 13.764652 
L 429.177057 11.929872 
L 432.647547 10.097106 
L 436.118038 8.266314 
L 439.588528 6.437459 
L 443.059019 4.610505 
L 446.529509 2.785418 
L 450 0.962163 
L 453.470491 -0.859292 
L 456.940981 -2.678981 
L 460.411472 -4.496935 
L 463.881962 -6.313184 
L 467.352453 -8.127758 
L 470.822943 -9.940686 
L 474.293434 -11.751996 
L 477.763925 -13.561715 
L 481.234415 -15.369872 
L 484.704906 -17.176491 
L 488.175396 -18.981599 
L 491.645887 -20.785219 
L 495.116378 -22.587377 
L 498.586868 -24.388097 
L 502.057359 -26.1874 
L 505.527849 -27.985311 
L 508.99834 -29.78185 
L 512.46883 -31.577039 
L 515.939321 -33.3709 
L 519.409812 -35.163453 
L 522.880302 -36.954718 
L 526.350793 -38.744714 
L 529.821283 -40.533461 
L 533.291774 -42.320977 
L 536.762265 -44.107281 
L 540.232755 -45.892391 
L 543.703246 -47.676323 
L 547.173736 -49.459096 
L 550.644227 -51.240726 
L 554.114717 -53.021229 
L 557.585208 -54.800621 
L 561.055699 -56.578919 
L 564.526189 -58.356137 
L 567.99668 -60.13229 
L 571.46717 -61.907394 
L 574.937661 -63.681462 
L 578.408151 -65.454509 
L 581.878642 -67.226549 
L 585.349133 -68.997595 
L 588.819623 -70.76766 
L 592.290114 -72.536758 
L 595.760604 -74.304902 
L 599.231095 -76.072103 
L 602.701586 -77.838374 
L 606.172076 -79.603727 
L 609.642567 -81.368174 
L 613.113057 -83.131727 
L 616.583548 -84.894397 
L 620.054038 -86.656194 
L 623.524529 -88.417131 
L 626.99502 -90.177217 
L 630.46551 -91.936463 
L 633.936001 -93.69488 
L 637.406491 -95.452478 
L 640.876982 -97.209266 
L 644.347473 -98.965255 
L 647.817963 -100.720454 
L 651.288454 -102.474872 
L 654.758944 -104.228519 
L 658.229435 -105.981404 
L 661.699925 -107.733536 
L 665.170416 -109.484923 
L 668.640907 -111.235574 
L 672.111397 -112.985498 
L 675.581888 -114.734703 
L 679.052378 -116.483198 
L 682.522869 -118.230989 
L 685.993359 -119.978086 
L 689.46385 -121.724496 
L 692.934341 -123.470226 
L 696.404831 -125.215284 
L 699.875322 -126.959678 
L 703.345812 -128.703415 
L 706.816303 -130.446502 
L 710.286794 -132.188946 
L 713.757284 -133.930754 
L 717.227775 -135.671932 
L 720.698265 -137.412488 
L 724.168756 -139.152428 
L 724.168756 263.63469 
L 724.168756 263.63469 
L 720.698265 263.63469 
L 717.227775 263.63469 
L 713.757284 263.63469 
L 710.286794 263.63469 
L 706.816303 263.63469 
L 703.345812 263.63469 
L 699.875322 263.63469 
L 696.404831 263.63469 
L 692.934341 263.63469 
L 689.46385 263.63469 
L 685.993359 263.63469 
L 682.522869 263.63469 
L 679.052378 263.63469 
L 675.581888 263.63469 
L 672.111397 263.63469 
L 668.640907 263.63469 
L 665.170416 263.63469 
L 661.699925 263.63469 
L 658.229435 263.63469 
L 654.758944 263.63469 
L 651.288454 263.63469 
L 647.817963 263.63469 
L 644.347473 263.63469 
L 640.876982 263.63469 
L 637.406491 263.63469 
L 633.936001 263.63469 
L 630.46551 263.63469 
L 626.99502 263.63469 
L 623.524529 263.63469 
L 620.054038 263.63469 
L 616.583548 263.63469 
L 613.113057 263.63469 
L 609.642567 263.63469 
L 606.172076 263.63469 
L 602.701586 263.63469 
L 599.231095 263.63469 
L 595.760604 263.63469 
L 592.290114 263.63469 
L 588.819623 263.63469 
L 585.349133 263.63469 
L 581.878642 263.63469 
L 578.408151 263.63469 
L 574.937661 263.63469 
L 571.46717 263.63469 
L 567.99668 263.63469 
L 564.526189 263.63469 
L 561.055699 263.63469 
L 557.585208 263.63469 
L 554.114717 263.63469 
L 550.644227 263.63469 
L 547.173736 263.63469 
L 543.703246 263.63469 
L 540.232755 263.63469 
L 536.762265 263.63469 
L 533.291774 263.63469 
L 529.821283 263.63469 
L 526.350793 263.63469 
L 522.880302 263.63469 
L 519.409812 263.63469 
L 515.939321 263.63469 
L 512.46883 263.63469 
L 508.99834 263.63469 
L 505.527849 263.63469 
L 502.057359 263.63469 
L 498.586868 263.63469 
L 495.116378 263.63469 
L 491.645887 263.63469 
L 488.175396 263.63469 
L 484.704906 263.63469 
L 481.234415 263.63469 
L 477.763925 263.63469 
L 474.293434 263.63469 
L 470.822943 263.63469 
L 467.352453 263.63469 
L 463.881962 263.63469 
L 460.411472 263.63469 
L 456.940981 263.63469 
L 453.470491 263.63469 
L 450 263.63469 
L 446.529509 263.63469 
L 443.059019 263.63469 
L 439.588528 263.63469 
L 436.118038 263.63469 
L 432.647547 263.63469 
L 429.177057 263.63469 
L 425.706566 263.63469 
L 422.236075 263.63469 
L 418.765585 263.63469 
L 415.295094 263.63469 
L 411.824604 263.63469 
L 408.354113 263.63469 
L 404.883622 263.63469 
L 401.413132 263.63469 
L 397.942641 263.63469 
L 394.472151 263.63469 
L 391.00166 263.63469 
L 387.53117 263.63469 
L 384.060679 263.63469 
L 380.590188 263.63469 
L 377.119698 263.63469 
L 373.649207 263.63469 
L 370.178717 263.63469 
L 366.708226 263.63469 
L 363.237735 263.63469 
L 359.767245 263.63469 
L 356.296754 263.63469 
L 352.826264 263.63469 
L 349.355773 263.63469 
L 345.885283 263.63469 
L 342.414792 263.63469 
L 338.944301 263.63469 
L 335.473811 263.63469 
L 332.00332 263.63469 
L 328.53283 263.63469 
L 325.062339 263.63469 
L 321.591849 263.63469 
L 318.121358 263.63469 
L 314.650867 263.63469 
L 311.180377 263.63469 
L 307.709886 263.63469 
L 304.239396 263.63469 
L 300.768905 263.63469 
L 297.298414 263.63469 
L 293.827924 263.63469 
L 290.357433 263.63469 
L 286.886943 263.63469 
L 283.416452 263.63469 
L 279.945962 263.63469 
L 276.475471 263.63469 
L 273.00498 263.63469 
L 269.53449 263.63469 
L 266.063999 263.63469 
L 262.593509 263.63469 
L 259.123018 263.63469 
L 255.652527 263.63469 
L 252.182037 263.63469 
L 248.711546 263.63469 
L 245.241056 263.63469 
L 241.770565 263.63469 
L 238.300075 263.63469 
L 234.829584 263.63469 
L 231.359093 263.63469 
L 227.888603 263.63469 
L 224.418112 263.63469 
L 220.947622 263.63469 
L 217.477131 263.63469 
L 214.006641 263.63469 
L 210.53615 263.63469 
L 207.065659 263.63469 
L 203.595169 263.63469 
L 200.124678 263.63469 
L 196.654188 263.63469 
L 193.183697 263.63469 
L 189.713206 263.63469 
L 186.242716 263.63469 
L 182.772225 263.63469 
L 179.301735 263.63469 
L 175.831244 263.63469 
L 172.360754 263.63469 
L 168.890263 263.63469 
L 165.419772 263.63469 
L 161.949282 263.63469 
L 158.478791 263.63469 
L 155.008301 263.63469 
L 151.53781 263.63469 
L 148.067319 263.63469 
L 144.596829 263.63469 
L 141.126338 263.63469 
L 137.655848 263.63469 
L 134.185357 263.63469 
L 130.714867 263.63469 
L 127.244376 263.63469 
L 123.773885 263.63469 
L 120.303395 263.63469 
L 116.832904 263.63469 
L 113.362414 263.63469 
L 109.891923 263.63469 
L 106.421432 263.63469 
L 102.950942 263.63469 
L 99.480451 263.63469 
L 96.009961 263.63469 
L 92.53947 263.63469 
L 89.06898 263.63469 
L 85.598489 263.63469 
L 82.127998 263.63469 
L 78.657508 263.63469 
L 75.187017 263.63469 
L 71.716527 263.63469 
L 68.246036 263.63469 
z
" clip-path="url(#p5f3fb6c303)" style="fill: #ff0000; fill-opacity: 0.2"/>
   </g>
   <g id="PolyCollection_2">
    <path d="M 68.246036 -289.852666 
L 68.246036 263.63469 
L 71.716527 280.347424 
L 75.187017 263.63469 
L 78.657508 253.184154 
L 82.127998 245.297494 
L 85.598489 238.815694 
L 89.06898 233.222498 
L 92.53947 228.242519 
L 96.009961 223.711376 
L 99.480451 219.523041 
L 102.950942 215.605115 
L 106.421432 211.905963 
L 109.891923 208.387458 
L 113.362414 205.020645 
L 116.832904 201.783018 
L 120.303395 198.656736 
L 123.773885 195.627415 
L 127.244376 192.68329 
L 130.714867 189.814618 
L 134.185357 187.013234 
L 137.655848 184.272232 
L 141.126338 181.585717 
L 144.596829 178.948619 
L 148.067319 176.356542 
L 151.53781 173.805652 
L 155.008301 171.292587 
L 158.478791 168.814379 
L 161.949282 166.368394 
L 165.419772 163.952291 
L 168.890263 161.56397 
L 172.360754 159.201547 
L 175.831244 156.863325 
L 179.301735 154.547765 
L 182.772225 152.253473 
L 186.242716 149.97918 
L 189.713206 147.723724 
L 193.183697 145.486046 
L 196.654188 143.26517 
L 200.124678 141.060201 
L 203.595169 138.870311 
L 207.065659 136.694738 
L 210.53615 134.532773 
L 214.006641 132.383762 
L 217.477131 130.247095 
L 220.947622 128.122203 
L 224.418112 126.008558 
L 227.888603 123.905665 
L 231.359093 121.813061 
L 234.829584 119.730315 
L 238.300075 117.657017 
L 241.770565 115.592788 
L 245.241056 113.537268 
L 248.711546 111.490119 
L 252.182037 109.451021 
L 255.652527 107.419674 
L 259.123018 105.395793 
L 262.593509 103.379109 
L 266.063999 101.369367 
L 269.53449 99.366327 
L 273.00498 97.369758 
L 276.475471 95.379443 
L 279.945962 93.395176 
L 283.416452 91.41676 
L 286.886943 89.444007 
L 290.357433 87.476739 
L 293.827924 85.514786 
L 297.298414 83.557986 
L 300.768905 81.606184 
L 304.239396 79.659232 
L 307.709886 77.716987 
L 311.180377 75.779315 
L 314.650867 73.846086 
L 318.121358 71.917176 
L 321.591849 69.992465 
L 325.062339 68.071839 
L 328.53283 66.155189 
L 332.00332 64.242409 
L 335.473811 62.333398 
L 338.944301 60.428058 
L 342.414792 58.526297 
L 345.885283 56.628024 
L 349.355773 54.733152 
L 352.826264 52.841598 
L 356.296754 50.953282 
L 359.767245 49.068126 
L 363.237735 47.186055 
L 366.708226 45.306998 
L 370.178717 43.430883 
L 373.649207 41.557645 
L 377.119698 39.687218 
L 380.590188 37.819539 
L 384.060679 35.954547 
L 387.53117 34.092185 
L 391.00166 32.232394 
L 394.472151 30.37512 
L 397.942641 28.52031 
L 401.413132 26.667912 
L 404.883622 24.817877 
L 408.354113 22.970154 
L 411.824604 21.124699 
L 415.295094 19.281464 
L 418.765585 17.440407 
L 422.236075 15.601483 
L 425.706566 13.764652 
L 429.177057 11.929872 
L 432.647547 10.097106 
L 436.118038 8.266314 
L 439.588528 6.437459 
L 443.059019 4.610505 
L 446.529509 2.785418 
L 450 0.962163 
L 453.470491 -0.859292 
L 456.940981 -2.678981 
L 460.411472 -4.496935 
L 463.881962 -6.313184 
L 467.352453 -8.127758 
L 470.822943 -9.940686 
L 474.293434 -11.751996 
L 477.763925 -13.561715 
L 481.234415 -15.369872 
L 484.704906 -17.176491 
L 488.175396 -18.981599 
L 491.645887 -20.785219 
L 495.116378 -22.587377 
L 498.586868 -24.388097 
L 502.057359 -26.1874 
L 505.527849 -27.985311 
L 508.99834 -29.78185 
L 512.46883 -31.577039 
L 515.939321 -33.3709 
L 519.409812 -35.163453 
L 522.880302 -36.954718 
L 526.350793 -38.744714 
L 529.821283 -40.533461 
L 533.291774 -42.320977 
L 536.762265 -44.107281 
L 540.232755 -45.892391 
L 543.703246 -47.676323 
L 547.173736 -49.459096 
L 550.644227 -51.240726 
L 554.114717 -53.021229 
L 557.585208 -54.800621 
L 561.055699 -56.578919 
L 564.526189 -58.356137 
L 567.99668 -60.13229 
L 571.46717 -61.907394 
L 574.937661 -63.681462 
L 578.408151 -65.454509 
L 581.878642 -67.226549 
L 585.349133 -68.997595 
L 588.819623 -70.76766 
L 592.290114 -72.536758 
L 595.760604 -74.304902 
L 599.231095 -76.072103 
L 602.701586 -77.838374 
L 606.172076 -79.603727 
L 609.642567 -81.368174 
L 613.113057 -83.131727 
L 616.583548 -84.894397 
L 620.054038 -86.656194 
L 623.524529 -88.417131 
L 626.99502 -90.177217 
L 630.46551 -91.936463 
L 633.936001 -93.69488 
L 637.406491 -95.452478 
L 640.876982 -97.209266 
L 644.347473 -98.965255 
L 647.817963 -100.720454 
L 651.288454 -102.474872 
L 654.758944 -104.228519 
L 658.229435 -105.981404 
L 661.699925 -107.733536 
L 665.170416 -109.484923 
L 668.640907 -111.235574 
L 672.111397 -112.985498 
L 675.581888 -114.734703 
L 679.052378 -116.483198 
L 682.522869 -118.230989 
L 685.993359 -119.978086 
L 689.46385 -121.724496 
L 692.934341 -123.470226 
L 696.404831 -125.215284 
L 699.875322 -126.959678 
L 703.345812 -128.703415 
L 706.816303 -130.446502 
L 710.286794 -132.188946 
L 713.757284 -133.930754 
L 717.227775 -135.671932 
L 720.698265 -137.412488 
L 724.168756 -139.152428 
L 724.168756 -289.852666 
L 724.168756 -289.852666 
L 720.698265 -289.852666 
L 717.227775 -289.852666 
L 713.757284 -289.852666 
L 710.286794 -289.852666 
L 706.816303 -289.852666 
L 703.345812 -289.852666 
L 699.875322 -289.852666 
L 696.404831 -289.852666 
L 692.934341 -289.852666 
L 689.46385 -289.852666 
L 685.993359 -289.852666 
L 682.522869 -289.852666 
L 679.052378 -289.852666 
L 675.581888 -289.852666 
L 672.111397 -289.852666 
L 668.640907 -289.852666 
L 665.170416 -289.852666 
L 661.699925 -289.852666 
L 658.229435 -289.852666 
L 654.758944 -289.852666 
L 651.288454 -289.852666 
L 647.817963 -289.852666 
L 644.347473 -289.852666 
L 640.876982 -289.852666 
L 637.406491 -289.852666 
L 633.936001 -289.852666 
L 630.46551 -289.852666 
L 626.99502 -289.852666 
L 623.524529 -289.852666 
L 620.054038 -289.852666 
L 616.583548 -289.852666 
L 613.113057 -289.852666 
L 609.642567 -289.852666 
L 606.172076 -289.852666 
L 602.701586 -289.852666 
L 599.231095 -289.852666 
L 595.760604 -289.852666 
L 592.290114 -289.852666 
L 588.819623 -289.852666 
L 585.349133 -289.852666 
L 581.878642 -289.852666 
L 578.408151 -289.852666 
L 574.937661 -289.852666 
L 571.46717 -289.852666 
L 567.99668 -289.852666 
L 564.526189 -289.852666 
L 561.055699 -289.852666 
L 557.585208 -289.852666 
L 554.114717 -289.852666 
L 550.644227 -289.852666 
L 547.173736 -289.852666 
L 543.703246 -289.852666 
L 540.232755 -289.852666 
L 536.762265 -289.852666 
L 533.291774 -289.852666 
L 529.821283 -289.852666 
L 526.350793 -289.852666 
L 522.880302 -289.852666 
L 519.409812 -289.852666 
L 515.939321 -289.852666 
L 512.46883 -289.852666 
L 508.99834 -289.852666 
L 505.527849 -289.852666 
L 502.057359 -289.852666 
L 498.586868 -289.852666 
L 495.116378 -289.852666 
L 491.645887 -289.852666 
L 488.175396 -289.852666 
L 484.704906 -289.852666 
L 481.234415 -289.852666 
L 477.763925 -289.852666 
L 474.293434 -289.852666 
L 470.822943 -289.852666 
L 467.352453 -289.852666 
L 463.881962 -289.852666 
L 460.411472 -289.852666 
L 456.940981 -289.852666 
L 453.470491 -289.852666 
L 450 -289.852666 
L 446.529509 -289.852666 
L 443.059019 -289.852666 
L 439.588528 -289.852666 
L 436.118038 -289.852666 
L 432.647547 -289.852666 
L 429.177057 -289.852666 
L 425.706566 -289.852666 
L 422.236075 -289.852666 
L 418.765585 -289.852666 
L 415.295094 -289.852666 
L 411.824604 -289.852666 
L 408.354113 -289.852666 
L 404.883622 -289.852666 
L 401.413132 -289.852666 
L 397.942641 -289.852666 
L 394.472151 -289.852666 
L 391.00166 -289.852666 
L 387.53117 -289.852666 
L 384.060679 -289.852666 
L 380.590188 -289.852666 
L 377.119698 -289.852666 
L 373.649207 -289.852666 
L 370.178717 -289.852666 
L 366.708226 -289.852666 
L 363.237735 -289.852666 
L 359.767245 -289.852666 
L 356.296754 -289.852666 
L 352.826264 -289.852666 
L 349.355773 -289.852666 
L 345.885283 -289.852666 
L 342.414792 -289.852666 
L 338.944301 -289.852666 
L 335.473811 -289.852666 
L 332.00332 -289.852666 
L 328.53283 -289.852666 
L 325.062339 -289.852666 
L 321.591849 -289.852666 
L 318.121358 -289.852666 
L 314.650867 -289.852666 
L 311.180377 -289.852666 
L 307.709886 -289.852666 
L 304.239396 -289.852666 
L 300.768905 -289.852666 
L 297.298414 -289.852666 
L 293.827924 -289.852666 
L 290.357433 -289.852666 
L 286.886943 -289.852666 
L 283.416452 -289.852666 
L 279.945962 -289.852666 
L 276.475471 -289.852666 
L 273.00498 -289.852666 
L 269.53449 -289.852666 
L 266.063999 -289.852666 
L 262.593509 -289.852666 
L 259.123018 -289.852666 
L 255.652527 -289.852666 
L 252.182037 -289.852666 
L 248.711546 -289.852666 
L 245.241056 -289.852666 
L 241.770565 -289.852666 
L 238.300075 -289.852666 
L 234.829584 -289.852666 
L 231.359093 -289.852666 
L 227.888603 -289.852666 
L 224.418112 -289.852666 
L 220.947622 -289.852666 
L 217.477131 -289.852666 
L 214.006641 -289.852666 
L 210.53615 -289.852666 
L 207.065659 -289.852666 
L 203.595169 -289.852666 
L 200.124678 -289.852666 
L 196.654188 -289.852666 
L 193.183697 -289.852666 
L 189.713206 -289.852666 
L 186.242716 -289.852666 
L 182.772225 -289.852666 
L 179.301735 -289.852666 
L 175.831244 -289.852666 
L 172.360754 -289.852666 
L 168.890263 -289.852666 
L 165.419772 -289.852666 
L 161.949282 -289.852666 
L 158.478791 -289.852666 
L 155.008301 -289.852666 
L 151.53781 -289.852666 
L 148.067319 -289.852666 
L 144.596829 -289.852666 
L 141.126338 -289.852666 
L 137.655848 -289.852666 
L 134.185357 -289.852666 
L 130.714867 -289.852666 
L 127.244376 -289.852666 
L 123.773885 -289.852666 
L 120.303395 -289.852666 
L 116.832904 -289.852666 
L 113.362414 -289.852666 
L 109.891923 -289.852666 
L 106.421432 -289.852666 
L 102.950942 -289.852666 
L 99.480451 -289.852666 
L 96.009961 -289.852666 
L 92.53947 -289.852666 
L 89.06898 -289.852666 
L 85.598489 -289.852666 
L 82.127998 -289.852666 
L 78.657508 -289.852666 
L 75.187017 -289.852666 
L 71.716527 -289.852666 
L 68.246036 -289.852666 
z
" clip-path="url(#p5f3fb6c303)" style="fill: url(#haf4f352f69); fill-opacity: 0.2"/>
   </g>
   <g id="matplotlib.axis_1">
    <g id="xtick_1">
     <g id="line2d_1">
      <defs>
       <path id="m92d74d4ad1" d="M 0 0 
L 0 3.5 
" style="stroke: #000000; stroke-width: 0.8"/>
      </defs>
      <g>
       <use xlink:href="#m92d74d4ad1" x="68.246036" y="263.63469" style="stroke: #000000; stroke-width: 0.8"/>
      </g>
     </g>
     <g id="text_1">
      <!-- $\mathdefault{0}$ -->
      <g transform="translate(60.93556 292.773897) scale(0.32 -0.32)">
       <defs>
        <path id="CMR17-30" d="M 2688 2025 
C 2688 2416 2682 3080 2413 3591 
C 2176 4039 1798 4198 1466 4198 
C 1158 4198 768 4058 525 3597 
C 269 3118 243 2524 243 2025 
C 243 1661 250 1106 448 619 
C 723 -39 1216 -128 1466 -128 
C 1760 -128 2208 -7 2470 600 
C 2662 1042 2688 1559 2688 2025 
z
M 1466 -26 
C 1056 -26 813 325 723 812 
C 653 1188 653 1738 653 2096 
C 653 2588 653 2997 736 3387 
C 858 3929 1216 4096 1466 4096 
C 1728 4096 2067 3923 2189 3400 
C 2272 3036 2278 2607 2278 2096 
C 2278 1680 2278 1169 2202 792 
C 2067 95 1690 -26 1466 -26 
z
" transform="scale(0.015625)"/>
       </defs>
       <use xlink:href="#CMR17-30" transform="scale(0.996264)"/>
      </g>
     </g>
    </g>
    <g id="xtick_2">
     <g id="line2d_2">
      <g>
       <use xlink:href="#m92d74d4ad1" x="137.655848" y="263.63469" style="stroke: #000000; stroke-width: 0.8"/>
      </g>
     </g>
     <g id="text_2">
      <!-- $\mathdefault{10}$ -->
      <g transform="translate(123.034895 292.773897) scale(0.32 -0.32)">
       <defs>
        <path id="CMR17-31" d="M 1702 4058 
C 1702 4192 1696 4192 1606 4192 
C 1357 3916 979 3827 621 3827 
C 602 3827 570 3827 563 3808 
C 557 3795 557 3782 557 3648 
C 755 3648 1088 3686 1344 3839 
L 1344 461 
C 1344 236 1331 160 781 160 
L 589 160 
L 589 0 
C 896 0 1216 0 1523 0 
C 1830 0 2150 0 2458 0 
L 2458 160 
L 2266 160 
C 1715 160 1702 230 1702 458 
L 1702 4058 
z
" transform="scale(0.015625)"/>
       </defs>
       <use xlink:href="#CMR17-31" transform="scale(0.996264)"/>
       <use xlink:href="#CMR17-30" transform="translate(45.690477 0) scale(0.996264)"/>
      </g>
     </g>
    </g>
    <g id="xtick_3">
     <g id="line2d_3">
      <g>
       <use xlink:href="#m92d74d4ad1" x="207.065659" y="263.63469" style="stroke: #000000; stroke-width: 0.8"/>
      </g>
     </g>
     <g id="text_3">
      <!-- $\mathdefault{20}$ -->
      <g transform="translate(192.444707 292.773897) scale(0.32 -0.32)">
       <defs>
        <path id="CMR17-32" d="M 2669 989 
L 2554 989 
C 2490 536 2438 459 2413 420 
C 2381 369 1920 369 1830 369 
L 602 369 
C 832 619 1280 1072 1824 1597 
C 2214 1967 2669 2402 2669 3035 
C 2669 3790 2067 4224 1395 4224 
C 691 4224 262 3604 262 3030 
C 262 2780 448 2748 525 2748 
C 589 2748 781 2787 781 3010 
C 781 3207 614 3264 525 3264 
C 486 3264 448 3258 422 3245 
C 544 3790 915 4058 1306 4058 
C 1862 4058 2227 3617 2227 3035 
C 2227 2479 1901 2000 1536 1584 
L 262 146 
L 262 0 
L 2515 0 
L 2669 989 
z
" transform="scale(0.015625)"/>
       </defs>
       <use xlink:href="#CMR17-32" transform="scale(0.996264)"/>
       <use xlink:href="#CMR17-30" transform="translate(45.690477 0) scale(0.996264)"/>
      </g>
     </g>
    </g>
    <g id="xtick_4">
     <g id="line2d_4">
      <g>
       <use xlink:href="#m92d74d4ad1" x="276.475471" y="263.63469" style="stroke: #000000; stroke-width: 0.8"/>
      </g>
     </g>
     <g id="text_4">
      <!-- $\mathdefault{30}$ -->
      <g transform="translate(261.854518 292.773897) scale(0.32 -0.32)">
       <defs>
        <path id="CMR17-33" d="M 1414 2157 
C 1984 2157 2234 1662 2234 1090 
C 2234 320 1824 25 1453 25 
C 1114 25 563 194 390 693 
C 422 680 454 680 486 680 
C 640 680 755 782 755 948 
C 755 1133 614 1216 486 1216 
C 378 1216 211 1165 211 926 
C 211 335 787 -128 1466 -128 
C 2176 -128 2720 430 2720 1085 
C 2720 1707 2208 2157 1600 2227 
C 2086 2328 2554 2756 2554 3329 
C 2554 3820 2048 4179 1472 4179 
C 890 4179 378 3829 378 3329 
C 378 3110 544 3072 627 3072 
C 762 3072 877 3155 877 3321 
C 877 3486 762 3569 627 3569 
C 602 3569 570 3569 544 3557 
C 730 3959 1235 4032 1459 4032 
C 1683 4032 2106 3925 2106 3320 
C 2106 3143 2080 2828 1862 2550 
C 1670 2304 1453 2304 1242 2284 
C 1210 2284 1062 2269 1037 2269 
C 992 2263 966 2257 966 2208 
C 966 2163 973 2157 1101 2157 
L 1414 2157 
z
" transform="scale(0.015625)"/>
       </defs>
       <use xlink:href="#CMR17-33" transform="scale(0.996264)"/>
       <use xlink:href="#CMR17-30" transform="translate(45.690477 0) scale(0.996264)"/>
      </g>
     </g>
    </g>
    <g id="xtick_5">
     <g id="line2d_5">
      <g>
       <use xlink:href="#m92d74d4ad1" x="345.885283" y="263.63469" style="stroke: #000000; stroke-width: 0.8"/>
      </g>
     </g>
     <g id="text_5">
      <!-- $\mathdefault{40}$ -->
      <g transform="translate(331.26433 292.773897) scale(0.32 -0.32)">
       <defs>
        <path id="CMR17-34" d="M 2150 4122 
C 2150 4256 2144 4256 2029 4256 
L 128 1254 
L 128 1088 
L 1779 1088 
L 1779 457 
C 1779 224 1766 160 1318 160 
L 1197 160 
L 1197 0 
C 1402 0 1747 0 1965 0 
C 2182 0 2528 0 2733 0 
L 2733 160 
L 2611 160 
C 2163 160 2150 224 2150 457 
L 2150 1088 
L 2803 1088 
L 2803 1254 
L 2150 1254 
L 2150 4122 
z
M 1798 3703 
L 1798 1254 
L 256 1254 
L 1798 3703 
z
" transform="scale(0.015625)"/>
       </defs>
       <use xlink:href="#CMR17-34" transform="scale(0.996264)"/>
       <use xlink:href="#CMR17-30" transform="translate(45.690477 0) scale(0.996264)"/>
      </g>
     </g>
    </g>
    <g id="xtick_6">
     <g id="line2d_6">
      <g>
       <use xlink:href="#m92d74d4ad1" x="415.295094" y="263.63469" style="stroke: #000000; stroke-width: 0.8"/>
      </g>
     </g>
     <g id="text_6">
      <!-- $\mathdefault{50}$ -->
      <g transform="translate(400.674142 292.773897) scale(0.32 -0.32)">
       <defs>
        <path id="CMR17-35" d="M 730 3692 
C 794 3666 1056 3584 1325 3584 
C 1920 3584 2246 3911 2432 4100 
C 2432 4157 2432 4192 2394 4192 
C 2387 4192 2374 4192 2323 4163 
C 2099 4058 1837 3973 1517 3973 
C 1325 3973 1037 3999 723 4139 
C 653 4171 640 4171 634 4171 
C 602 4171 595 4164 595 4037 
L 595 2203 
C 595 2089 595 2057 659 2057 
C 691 2057 704 2070 736 2114 
C 941 2401 1222 2522 1542 2522 
C 1766 2522 2246 2382 2246 1289 
C 2246 1085 2246 715 2054 421 
C 1894 159 1645 25 1370 25 
C 947 25 518 320 403 814 
C 429 807 480 795 506 795 
C 589 795 749 840 749 1038 
C 749 1210 627 1280 506 1280 
C 358 1280 262 1190 262 1011 
C 262 454 704 -128 1382 -128 
C 2042 -128 2669 440 2669 1264 
C 2669 2030 2170 2624 1549 2624 
C 1222 2624 947 2503 730 2274 
L 730 3692 
z
" transform="scale(0.015625)"/>
       </defs>
       <use xlink:href="#CMR17-35" transform="scale(0.996264)"/>
       <use xlink:href="#CMR17-30" transform="translate(45.690477 0) scale(0.996264)"/>
      </g>
     </g>
    </g>
    <g id="text_7">
     <!-- $a_{init}$($\mu$g/ml) -->
     <g transform="translate(181.171341 326.856552) scale(0.32 -0.32)">
      <defs>
       <path id="CMMI12-61" d="M 1926 760 
C 1894 651 1894 639 1805 517 
C 1664 338 1382 64 1082 64 
C 819 64 672 300 672 677 
C 672 1028 870 1743 992 2012 
C 1210 2459 1510 2689 1760 2689 
C 2182 2689 2266 2165 2266 2114 
C 2266 2108 2246 2024 2240 2012 
L 1926 760 
z
M 2336 2395 
C 2266 2561 2093 2816 1760 2816 
C 1037 2816 256 1884 256 939 
C 256 307 627 -64 1062 -64 
C 1414 -64 1715 211 1894 422 
C 1958 45 2259 -64 2451 -64 
C 2643 -64 2797 51 2912 281 
C 3014 498 3104 888 3104 913 
C 3104 945 3078 971 3040 971 
C 2982 971 2976 939 2950 843 
C 2854 466 2733 64 2470 64 
C 2285 64 2272 230 2272 358 
C 2272 505 2291 575 2349 824 
C 2394 984 2426 1124 2477 1309 
C 2714 2267 2771 2497 2771 2535 
C 2771 2625 2701 2695 2605 2695 
C 2400 2695 2349 2472 2336 2395 
z
" transform="scale(0.015625)"/>
       <path id="CMMI12-69" d="M 1811 913 
C 1811 945 1786 971 1747 971 
C 1690 971 1683 952 1651 843 
C 1485 262 1222 64 1011 64 
C 934 64 845 83 845 275 
C 845 447 922 639 992 830 
L 1440 2018 
C 1459 2069 1504 2184 1504 2305 
C 1504 2574 1312 2816 998 2816 
C 410 2816 173 1890 173 1839 
C 173 1814 198 1782 243 1782 
C 301 1782 307 1807 333 1896 
C 486 2428 730 2682 979 2682 
C 1037 2682 1146 2682 1146 2478 
C 1146 2312 1062 2101 1011 1961 
L 563 773 
C 525 671 486 568 486 453 
C 486 166 685 -64 992 -64 
C 1581 -64 1811 869 1811 913 
z
M 1760 4013 
C 1760 4109 1683 4224 1542 4224 
C 1395 4224 1229 4083 1229 3917 
C 1229 3758 1363 3707 1440 3707 
C 1613 3707 1760 3873 1760 4013 
z
" transform="scale(0.015625)"/>
       <path id="CMMI12-6e" d="M 1318 1871 
C 1331 1910 1491 2229 1728 2433 
C 1894 2586 2112 2689 2362 2689 
C 2618 2689 2707 2497 2707 2242 
C 2707 1878 2445 1150 2317 805 
C 2259 651 2227 568 2227 453 
C 2227 166 2426 -64 2733 -64 
C 3328 -64 3552 875 3552 913 
C 3552 945 3526 971 3488 971 
C 3430 971 3424 952 3392 843 
C 3245 319 3002 64 2752 64 
C 2688 64 2586 64 2586 269 
C 2586 429 2656 621 2694 710 
C 2822 1063 3091 1780 3091 2145 
C 3091 2528 2867 2816 2381 2816 
C 1811 2816 1510 2415 1395 2255 
C 1376 2618 1114 2816 832 2816 
C 627 2816 486 2695 378 2478 
C 262 2248 173 1865 173 1839 
C 173 1814 198 1782 243 1782 
C 294 1782 301 1788 339 1935 
C 442 2325 557 2689 813 2689 
C 960 2689 1011 2586 1011 2395 
C 1011 2254 947 2005 902 1807 
L 723 1118 
C 698 996 627 709 595 594 
C 550 428 480 128 480 96 
C 480 6 550 -64 646 -64 
C 723 -64 813 -26 864 70 
C 877 102 934 326 966 453 
L 1107 1028 
L 1318 1871 
z
" transform="scale(0.015625)"/>
       <path id="CMMI12-74" d="M 1286 2566 
L 1875 2566 
C 1997 2566 2061 2566 2061 2681 
C 2061 2752 2022 2752 1894 2752 
L 1331 2752 
L 1568 3692 
C 1594 3781 1594 3794 1594 3840 
C 1594 3943 1510 4000 1427 4000 
C 1376 4000 1229 3981 1178 3775 
L 928 2752 
L 326 2752 
C 198 2752 141 2752 141 2630 
C 141 2566 186 2566 307 2566 
L 877 2566 
L 454 881 
C 403 658 384 594 384 511 
C 384 211 595 -64 954 -64 
C 1600 -64 1946 868 1946 912 
C 1946 951 1920 970 1882 970 
C 1869 970 1843 970 1830 944 
C 1824 938 1818 931 1773 829 
C 1638 511 1344 64 973 64 
C 781 64 768 224 768 364 
C 768 370 768 492 787 568 
L 1286 2566 
z
" transform="scale(0.015625)"/>
       <path id="CMR17-28" d="M 1958 -1561 
C 1958 -1555 1958 -1542 1939 -1523 
C 1645 -1224 858 -407 858 1581 
C 858 3569 1632 4379 1946 4697 
C 1946 4704 1958 4717 1958 4736 
C 1958 4755 1939 4768 1914 4768 
C 1843 4768 1299 4296 986 3594 
C 666 2887 576 2199 576 1588 
C 576 1128 621 351 1005 -471 
C 1312 -1135 1837 -1600 1914 -1600 
C 1946 -1600 1958 -1587 1958 -1561 
z
" transform="scale(0.015625)"/>
       <path id="CMMI12-16" d="M 922 140 
C 1082 -6 1318 -64 1536 -64 
C 1946 -64 2227 208 2374 405 
C 2438 69 2707 -64 2931 -64 
C 3123 -64 3277 50 3392 277 
C 3494 493 3584 879 3584 903 
C 3584 935 3558 960 3520 960 
C 3462 960 3456 928 3430 834 
C 3334 461 3213 64 2950 64 
C 2765 64 2752 229 2752 358 
C 2752 504 2810 735 2854 926 
L 3034 1615 
C 3059 1737 3130 2023 3162 2139 
C 3200 2292 3270 2567 3270 2592 
C 3270 2688 3194 2752 3098 2752 
C 3040 2752 2906 2726 2854 2535 
L 2406 760 
C 2374 632 2374 619 2291 517 
C 2214 409 1965 64 1562 64 
C 1203 64 1088 326 1088 625 
C 1088 811 1146 1034 1171 1143 
L 1459 2293 
C 1491 2414 1542 2618 1542 2657 
C 1542 2759 1459 2816 1376 2816 
C 1318 2816 1178 2797 1126 2592 
L 198 -1107 
C 192 -1139 179 -1177 179 -1216 
C 179 -1312 256 -1376 352 -1376 
C 538 -1376 576 -1228 621 -1050 
L 922 140 
z
" transform="scale(0.015625)"/>
       <path id="CMR17-67" d="M 710 1164 
C 832 1068 1043 960 1299 960 
C 1805 960 2240 1357 2240 1888 
C 2240 2054 2189 2310 1997 2509 
C 2176 2692 2438 2752 2586 2752 
C 2611 2752 2650 2752 2682 2734 
C 2656 2728 2598 2703 2598 2605 
C 2598 2527 2656 2471 2739 2471 
C 2835 2471 2886 2533 2886 2614 
C 2886 2731 2790 2854 2586 2854 
C 2330 2854 2106 2738 1926 2580 
C 1734 2753 1504 2816 1299 2816 
C 794 2816 358 2419 358 1888 
C 358 1522 570 1292 634 1228 
C 442 1004 442 743 442 711 
C 442 545 506 302 723 168 
C 390 85 128 -169 128 -486 
C 128 -943 736 -1280 1466 -1280 
C 2170 -1280 2803 -956 2803 -479 
C 2803 384 1856 384 1363 384 
C 1216 384 954 384 922 391 
C 723 423 589 602 589 826 
C 589 883 589 1024 710 1164 
z
M 1299 1068 
C 736 1068 736 1760 736 1889 
C 736 2016 736 2708 1299 2708 
C 1862 2708 1862 2016 1862 1889 
C 1862 1760 1862 1068 1299 1068 
z
M 1466 -1171 
C 826 -1171 384 -835 384 -486 
C 384 -289 493 -105 634 -4 
C 794 104 858 104 1293 104 
C 1818 104 2547 104 2547 -486 
C 2547 -835 2106 -1171 1466 -1171 
z
" transform="scale(0.015625)"/>
       <path id="CMR17-2f" d="M 2605 4545 
C 2637 4627 2637 4640 2637 4653 
C 2637 4729 2579 4768 2528 4768 
C 2451 4768 2426 4717 2400 4640 
L 326 -1377 
C 294 -1460 294 -1473 294 -1486 
C 294 -1562 352 -1600 403 -1600 
C 480 -1600 506 -1549 531 -1473 
L 2605 4545 
z
" transform="scale(0.015625)"/>
       <path id="CMR17-6d" d="M 4326 1933 
C 4326 2252 4269 2790 3507 2790 
C 3072 2790 2771 2496 2656 2151 
L 2650 2151 
C 2573 2676 2195 2790 1837 2790 
C 1331 2790 1069 2400 973 2144 
L 966 2144 
L 966 2790 
L 211 2720 
L 211 2554 
C 589 2554 646 2515 646 2208 
L 646 428 
C 646 184 621 153 211 153 
L 211 -13 
C 365 0 646 0 813 0 
C 979 0 1267 0 1421 -13 
L 1421 153 
C 1011 153 986 178 986 428 
L 986 1658 
C 986 2247 1344 2688 1792 2688 
C 2266 2688 2317 2266 2317 1958 
L 2317 428 
C 2317 184 2291 153 1882 153 
L 1882 -13 
C 2035 0 2317 0 2483 0 
C 2650 0 2938 0 3091 -13 
L 3091 153 
C 2682 153 2656 178 2656 428 
L 2656 1658 
C 2656 2247 3014 2688 3462 2688 
C 3936 2688 3987 2266 3987 1958 
L 3987 428 
C 3987 184 3962 153 3552 153 
L 3552 -13 
C 3706 0 3987 0 4154 0 
C 4320 0 4608 0 4762 -13 
L 4762 153 
C 4352 153 4326 178 4326 428 
L 4326 1933 
z
" transform="scale(0.015625)"/>
       <path id="CMR17-6c" d="M 979 4396 
L 218 4326 
L 218 4160 
C 595 4160 653 4122 653 3817 
L 653 426 
C 653 184 627 153 218 153 
L 218 -13 
C 371 0 653 0 813 0 
C 979 0 1261 0 1414 -13 
L 1414 153 
C 1005 153 979 178 979 426 
L 979 4396 
z
" transform="scale(0.015625)"/>
       <path id="CMR17-29" d="M 1683 1581 
C 1683 2040 1638 2817 1254 3639 
C 947 4303 422 4768 346 4768 
C 326 4768 301 4761 301 4729 
C 301 4717 307 4710 314 4697 
C 621 4378 1402 3568 1402 1584 
C 1402 -407 627 -1217 314 -1537 
C 307 -1549 301 -1556 301 -1568 
C 301 -1600 326 -1600 346 -1600 
C 416 -1600 960 -1128 1274 -426 
C 1594 281 1683 969 1683 1581 
z
" transform="scale(0.015625)"/>
      </defs>
      <use xlink:href="#CMMI12-61" transform="scale(0.996264)"/>
      <use xlink:href="#CMMI12-69" transform="translate(51.207858 -14.943915) scale(0.697382)"/>
      <use xlink:href="#CMMI12-6e" transform="translate(74.502765 -14.943915) scale(0.697382)"/>
      <use xlink:href="#CMMI12-69" transform="translate(115.263608 -14.943915) scale(0.697382)"/>
      <use xlink:href="#CMMI12-74" transform="translate(138.558515 -14.943915) scale(0.697382)"/>
      <use xlink:href="#CMR17-28" transform="translate(163.714957 0) scale(0.996264)"/>
      <use xlink:href="#CMMI12-16" transform="translate(198.995725 0) scale(0.996264)"/>
      <use xlink:href="#CMR17-67" transform="translate(257.687146 0) scale(0.996264)"/>
      <use xlink:href="#CMR17-2f" transform="translate(303.377623 0) scale(0.996264)"/>
      <use xlink:href="#CMR17-6d" transform="translate(349.0681 0) scale(0.996264)"/>
      <use xlink:href="#CMR17-6c" transform="translate(425.98769 0) scale(0.996264)"/>
      <use xlink:href="#CMR17-29" transform="translate(450.858749 0) scale(0.996264)"/>
     </g>
    </g>
   </g>
   <g id="matplotlib.axis_2">
    <g id="ytick_1">
     <g id="line2d_7">
      <defs>
       <path id="m60236a6a89" d="M 0 0 
L -3.5 0 
" style="stroke: #000000; stroke-width: 0.8"/>
      </defs>
      <g>
       <use xlink:href="#m60236a6a89" x="68.246036" y="263.63469" style="stroke: #000000; stroke-width: 0.8"/>
      </g>
     </g>
     <g id="text_8">
      <!-- $\mathdefault{0}$ -->
      <g transform="translate(46.625083 274.704293) scale(0.32 -0.32)">
       <use xlink:href="#CMR17-30" transform="scale(0.996264)"/>
      </g>
     </g>
    </g>
    <g id="ytick_2">
     <g id="line2d_8">
      <g>
       <use xlink:href="#m60236a6a89" x="68.246036" y="213.095903" style="stroke: #000000; stroke-width: 0.8"/>
      </g>
     </g>
     <g id="text_9">
      <!-- $\mathdefault{2}$ -->
      <g transform="translate(46.625083 224.165506) scale(0.32 -0.32)">
       <use xlink:href="#CMR17-32" transform="scale(0.996264)"/>
      </g>
     </g>
    </g>
    <g id="ytick_3">
     <g id="line2d_9">
      <g>
       <use xlink:href="#m60236a6a89" x="68.246036" y="162.557116" style="stroke: #000000; stroke-width: 0.8"/>
      </g>
     </g>
     <g id="text_10">
      <!-- $\mathdefault{4}$ -->
      <g transform="translate(46.625083 173.626719) scale(0.32 -0.32)">
       <use xlink:href="#CMR17-34" transform="scale(0.996264)"/>
      </g>
     </g>
    </g>
    <g id="ytick_4">
     <g id="line2d_10">
      <g>
       <use xlink:href="#m60236a6a89" x="68.246036" y="112.018329" style="stroke: #000000; stroke-width: 0.8"/>
      </g>
     </g>
     <g id="text_11">
      <!-- $\mathdefault{6}$ -->
      <g transform="translate(46.625083 123.087932) scale(0.32 -0.32)">
       <defs>
        <path id="CMR17-36" d="M 678 2176 
C 678 3690 1395 4032 1811 4032 
C 1946 4032 2272 4009 2400 3776 
C 2298 3776 2106 3776 2106 3553 
C 2106 3381 2246 3323 2336 3323 
C 2394 3323 2566 3348 2566 3560 
C 2566 3954 2246 4179 1805 4179 
C 1043 4179 243 3390 243 1984 
C 243 253 966 -128 1478 -128 
C 2099 -128 2688 427 2688 1283 
C 2688 2081 2170 2662 1517 2662 
C 1126 2662 838 2407 678 1960 
L 678 2176 
z
M 1478 25 
C 691 25 691 1200 691 1436 
C 691 1896 909 2560 1504 2560 
C 1613 2560 1926 2560 2138 2120 
C 2253 1870 2253 1609 2253 1289 
C 2253 944 2253 690 2118 434 
C 1978 171 1773 25 1478 25 
z
" transform="scale(0.015625)"/>
       </defs>
       <use xlink:href="#CMR17-36" transform="scale(0.996264)"/>
      </g>
     </g>
    </g>
    <g id="ytick_5">
     <g id="line2d_11">
      <g>
       <use xlink:href="#m60236a6a89" x="68.246036" y="61.479542" style="stroke: #000000; stroke-width: 0.8"/>
      </g>
     </g>
     <g id="text_12">
      <!-- $\mathdefault{8}$ -->
      <g transform="translate(46.625083 72.549145) scale(0.32 -0.32)">
       <defs>
        <path id="CMR17-38" d="M 1741 2264 
C 2144 2467 2554 2773 2554 3263 
C 2554 3841 1990 4179 1472 4179 
C 890 4179 378 3759 378 3180 
C 378 3021 416 2747 666 2505 
C 730 2442 998 2251 1171 2130 
C 883 1983 211 1634 211 934 
C 211 279 838 -128 1459 -128 
C 2144 -128 2720 362 2720 1010 
C 2720 1590 2330 1857 2074 2029 
L 1741 2264 
z
M 902 2822 
C 851 2854 595 3051 595 3351 
C 595 3739 998 4032 1459 4032 
C 1965 4032 2336 3676 2336 3262 
C 2336 2669 1670 2331 1638 2331 
C 1632 2331 1626 2331 1574 2370 
L 902 2822 
z
M 2080 1519 
C 2176 1449 2483 1240 2483 851 
C 2483 381 2010 25 1472 25 
C 890 25 448 438 448 940 
C 448 1443 838 1862 1280 2060 
L 2080 1519 
z
" transform="scale(0.015625)"/>
       </defs>
       <use xlink:href="#CMR17-38" transform="scale(0.996264)"/>
      </g>
     </g>
    </g>
    <g id="text_13">
     <!-- $\rho$ (initial cells/ml) -->
     <g transform="translate(34.681635 266.142371) rotate(-90) scale(0.32 -0.32)">
      <defs>
       <path id="CMMI12-1a" d="M 198 -1107 
C 192 -1139 179 -1177 179 -1216 
C 179 -1312 256 -1376 352 -1376 
C 448 -1376 538 -1312 576 -1222 
C 602 -1164 781 -397 986 390 
C 1114 70 1350 -64 1600 -64 
C 2323 -64 3142 830 3142 1795 
C 3142 2478 2726 2816 2285 2816 
C 1722 2816 1037 2235 826 1385 
L 198 -1107 
z
M 1594 64 
C 1158 64 1050 569 1050 645 
C 1050 684 1210 1295 1229 1391 
C 1555 2670 2182 2670 2278 2670 
C 2566 2670 2726 2410 2726 2036 
C 2726 1712 2554 1084 2445 819 
C 2253 381 1920 64 1594 64 
z
" transform="scale(0.015625)"/>
       <path id="CMR17-69" d="M 992 3909 
C 992 4049 877 4170 730 4170 
C 589 4170 467 4056 467 3909 
C 467 3769 582 3648 730 3648 
C 870 3648 992 3763 992 3909 
z
M 243 2706 
L 243 2541 
C 602 2541 653 2502 653 2197 
L 653 427 
C 653 184 627 153 218 153 
L 218 -13 
C 371 0 646 0 806 0 
C 960 0 1222 0 1370 -13 
L 1370 153 
C 992 153 979 191 979 420 
L 979 2776 
L 243 2706 
z
" transform="scale(0.015625)"/>
       <path id="CMR17-6e" d="M 2656 1933 
C 2656 2259 2592 2790 1837 2790 
C 1331 2790 1069 2400 973 2144 
L 966 2144 
L 966 2790 
L 211 2720 
L 211 2554 
C 589 2554 646 2515 646 2208 
L 646 428 
C 646 184 621 153 211 153 
L 211 -13 
C 365 0 646 0 813 0 
C 979 0 1267 0 1421 -13 
L 1421 153 
C 1011 153 986 178 986 428 
L 986 1658 
C 986 2247 1344 2688 1792 2688 
C 2266 2688 2317 2266 2317 1958 
L 2317 428 
C 2317 184 2291 153 1882 153 
L 1882 -13 
C 2035 0 2317 0 2483 0 
C 2650 0 2938 0 3091 -13 
L 3091 153 
C 2682 153 2656 178 2656 428 
L 2656 1933 
z
" transform="scale(0.015625)"/>
       <path id="CMR17-74" d="M 966 2560 
L 1862 2560 
L 1862 2725 
L 966 2725 
L 966 3904 
L 851 3904 
C 838 3245 614 2668 70 2668 
L 70 2560 
L 627 2560 
L 627 771 
C 627 650 627 -64 1370 -64 
C 1747 -64 1965 306 1965 777 
L 1965 1140 
L 1850 1140 
L 1850 783 
C 1850 344 1677 51 1408 51 
C 1222 51 966 178 966 758 
L 966 2560 
z
" transform="scale(0.015625)"/>
       <path id="CMR17-61" d="M 2304 1653 
C 2304 2072 2304 2294 2035 2543 
C 1798 2752 1523 2816 1306 2816 
C 800 2816 435 2407 435 1971 
C 435 1728 627 1728 666 1728 
C 749 1728 896 1778 896 1954 
C 896 2112 774 2181 666 2181 
C 640 2181 608 2174 589 2168 
C 723 2592 1069 2714 1293 2714 
C 1613 2714 1965 2429 1965 1885 
L 1965 1600 
C 1587 1600 1133 1549 774 1357 
C 371 1133 256 813 256 570 
C 256 77 832 -64 1171 -64 
C 1523 -64 1850 139 1990 511 
C 2003 233 2182 -18 2464 -18 
C 2598 -18 2938 70 2938 567 
L 2938 920 
L 2822 920 
L 2822 562 
C 2822 178 2650 128 2566 128 
C 2304 128 2304 458 2304 738 
L 2304 1653 
z
M 1965 870 
C 1965 317 1568 38 1216 38 
C 896 38 646 275 646 570 
C 646 761 730 1100 1101 1305 
C 1408 1478 1760 1504 1965 1504 
L 1965 870 
z
" transform="scale(0.015625)"/>
       <path id="CMR17-63" d="M 2234 2240 
C 2112 2240 1933 2240 1933 2017 
C 1933 1838 2080 1787 2163 1787 
C 2208 1787 2394 1807 2394 2024 
C 2394 2467 1958 2803 1466 2803 
C 787 2803 211 2178 211 1363 
C 211 516 813 -64 1466 -64 
C 2259 -64 2458 677 2458 748 
C 2458 774 2451 793 2406 793 
C 2362 793 2355 787 2330 703 
C 2163 180 1798 51 1523 51 
C 1114 51 621 427 621 1369 
C 621 2338 1094 2688 1472 2688 
C 1722 2688 2093 2573 2234 2240 
z
" transform="scale(0.015625)"/>
       <path id="CMR17-65" d="M 2438 1472 
C 2464 1498 2464 1511 2464 1576 
C 2464 2238 2118 2816 1389 2816 
C 710 2816 173 2169 173 1383 
C 173 551 781 -64 1459 -64 
C 2176 -64 2458 607 2458 740 
C 2458 784 2419 784 2406 784 
C 2362 784 2355 771 2330 696 
C 2189 265 1837 51 1504 51 
C 1229 51 954 203 781 480 
C 582 803 582 1176 582 1472 
L 2438 1472 
z
M 589 1568 
C 634 2505 1126 2714 1382 2714 
C 1818 2714 2112 2297 2118 1568 
L 589 1568 
z
" transform="scale(0.015625)"/>
       <path id="CMR17-73" d="M 1978 2697 
C 1978 2813 1971 2819 1933 2819 
C 1907 2819 1901 2813 1824 2717 
C 1805 2691 1747 2626 1728 2601 
C 1523 2819 1235 2819 1126 2819 
C 416 2819 160 2447 160 2076 
C 160 1498 813 1365 998 1325 
C 1402 1243 1542 1217 1677 1101 
C 1760 1025 1901 884 1901 654 
C 1901 384 1747 38 1158 38 
C 602 38 403 460 288 1021 
C 269 1110 269 1117 218 1117 
C 166 1117 160 1110 160 983 
L 160 63 
C 160 -51 166 -58 205 -58 
C 237 -58 243 -51 275 0 
C 314 57 410 211 448 276 
C 576 103 800 -64 1158 -64 
C 1792 -64 2131 283 2131 784 
C 2131 1112 1958 1285 1875 1362 
C 1683 1561 1459 1606 1190 1657 
C 838 1735 390 1825 390 2217 
C 390 2383 480 2737 1126 2737 
C 1811 2737 1850 2094 1862 1888 
C 1869 1856 1901 1849 1920 1849 
C 1978 1849 1978 1869 1978 1978 
L 1978 2697 
z
" transform="scale(0.015625)"/>
      </defs>
      <use xlink:href="#CMMI12-1a" transform="scale(0.996264)"/>
      <use xlink:href="#CMR17-28" transform="translate(80.390339 0) scale(0.996264)"/>
      <use xlink:href="#CMR17-69" transform="translate(115.671107 0) scale(0.996264)"/>
      <use xlink:href="#CMR17-6e" transform="translate(140.542165 0) scale(0.996264)"/>
      <use xlink:href="#CMR17-69" transform="translate(191.437535 0) scale(0.996264)"/>
      <use xlink:href="#CMR17-74" transform="translate(216.308594 0) scale(0.996264)"/>
      <use xlink:href="#CMR17-69" transform="translate(251.589362 0) scale(0.996264)"/>
      <use xlink:href="#CMR17-61" transform="translate(276.46042 0) scale(0.996264)"/>
      <use xlink:href="#CMR17-6c" transform="translate(322.150897 0) scale(0.996264)"/>
      <use xlink:href="#CMR17-63" transform="translate(377.097922 0) scale(0.996264)"/>
      <use xlink:href="#CMR17-65" transform="translate(417.583582 0) scale(0.996264)"/>
      <use xlink:href="#CMR17-6c" transform="translate(458.069243 0) scale(0.996264)"/>
      <use xlink:href="#CMR17-6c" transform="translate(482.940301 0) scale(0.996264)"/>
      <use xlink:href="#CMR17-73" transform="translate(507.81136 0) scale(0.996264)"/>
      <use xlink:href="#CMR17-2f" transform="translate(543.612698 0) scale(0.996264)"/>
      <use xlink:href="#CMR17-6d" transform="translate(589.303175 0) scale(0.996264)"/>
      <use xlink:href="#CMR17-6c" transform="translate(666.222764 0) scale(0.996264)"/>
      <use xlink:href="#CMR17-29" transform="translate(691.093823 0) scale(0.996264)"/>
     </g>
    </g>
    <g id="text_14">
     <!-- $\times\mathdefault{10^{7}}\mathdefault{}$ -->
     <g transform="translate(68.246036 33.210148) scale(0.32 -0.32)">
      <defs>
       <path id="CMSY10-2" d="M 2490 1785 
L 1210 3059 
C 1133 3136 1120 3148 1069 3148 
C 1005 3148 941 3091 941 3020 
C 941 2976 954 2963 1024 2892 
L 2304 1606 
L 1024 320 
C 954 249 941 236 941 192 
C 941 121 1005 64 1069 64 
C 1120 64 1133 76 1210 153 
L 2483 1427 
L 3808 102 
C 3821 96 3866 64 3904 64 
C 3981 64 4032 121 4032 192 
C 4032 204 4032 230 4013 262 
C 4006 275 2989 1280 2669 1606 
L 3840 2777 
C 3872 2816 3968 2899 4000 2937 
C 4006 2950 4032 2976 4032 3020 
C 4032 3091 3981 3148 3904 3148 
C 3853 3148 3827 3123 3757 3052 
L 2490 1785 
z
" transform="scale(0.015625)"/>
       <path id="CMR17-37" d="M 2886 3941 
L 2886 4081 
L 1382 4081 
C 634 4081 621 4165 595 4288 
L 480 4288 
L 294 3094 
L 410 3094 
C 429 3215 474 3540 550 3661 
C 589 3712 1062 3712 1171 3712 
L 2579 3712 
L 1869 2661 
C 1395 1954 1069 999 1069 165 
C 1069 89 1069 -128 1299 -128 
C 1530 -128 1530 89 1530 171 
L 1530 465 
C 1530 1508 1709 2196 2003 2636 
L 2886 3941 
z
" transform="scale(0.015625)"/>
      </defs>
      <use xlink:href="#CMSY10-2" transform="scale(0.996264)"/>
      <use xlink:href="#CMR17-31" transform="translate(77.487468 0) scale(0.996264)"/>
      <use xlink:href="#CMR17-30" transform="translate(123.177945 0) scale(0.996264)"/>
      <use xlink:href="#CMR17-37" transform="translate(168.868422 36.153639) scale(0.697382)"/>
     </g>
    </g>
   </g>
   <g id="line2d_12">
    <path d="M 71.716527 299.038868 
L 75.187017 263.63469 
L 78.657508 242.250361 
L 82.127998 226.606051 
L 85.598489 214.10695 
L 89.06898 203.597261 
L 92.53947 194.460447 
L 96.009961 186.32849 
L 99.480451 178.96401 
L 102.950942 172.204928 
L 106.421432 165.935636 
L 109.891923 160.070778 
L 113.362414 154.545529 
L 116.832904 149.309503 
L 120.303395 144.322755 
L 123.773885 139.553084 
L 130.714867 130.564144 
L 137.655848 122.1806 
L 144.596829 114.286848 
L 151.53781 106.797529 
L 158.478791 99.647819 
L 165.419772 92.787331 
L 172.360754 86.176123 
L 182.772225 76.657909 
L 193.183697 67.544129 
L 203.595169 58.769958 
L 214.006641 50.28501 
L 224.418112 42.04934 
L 238.300075 31.401429 
L 252.182037 21.079363 
L 266.063999 11.035677 
L 283.151781 -1 
L 283.151781 -1 
" clip-path="url(#p5f3fb6c303)" style="fill: none; stroke-dasharray: 14.8,6.4; stroke-dashoffset: 0; stroke: #000000; stroke-width: 4"/>
   </g>
   <g id="line2d_13">
    <defs>
     <path id="m06d990493e" d="M 0 1.5 
C 0.397805 1.5 0.77937 1.341951 1.06066 1.06066 
C 1.341951 0.77937 1.5 0.397805 1.5 0 
C 1.5 -0.397805 1.341951 -0.77937 1.06066 -1.06066 
C 0.77937 -1.341951 0.397805 -1.5 0 -1.5 
C -0.397805 -1.5 -0.77937 -1.341951 -1.06066 -1.06066 
C -1.341951 -0.77937 -1.5 -0.397805 -1.5 0 
C -1.5 0.397805 -1.341951 0.77937 -1.06066 1.06066 
C -0.77937 1.341951 -0.397805 1.5 0 1.5 
z
" style="stroke: #000000"/>
    </defs>
    <g clip-path="url(#p5f3fb6c303)">
     <use xlink:href="#m06d990493e" x="71.716527" y="267.511132" style="stroke: #000000"/>
     <use xlink:href="#m06d990493e" x="75.187017" y="263.63469" style="stroke: #000000"/>
     <use xlink:href="#m06d990493e" x="78.657508" y="260.692904" style="stroke: #000000"/>
     <use xlink:href="#m06d990493e" x="82.127998" y="258.133787" style="stroke: #000000"/>
     <use xlink:href="#m06d990493e" x="85.598489" y="255.78435" style="stroke: #000000"/>
     <use xlink:href="#m06d990493e" x="89.06898" y="253.56754" style="stroke: #000000"/>
     <use xlink:href="#m06d990493e" x="92.53947" y="251.442255" style="stroke: #000000"/>
     <use xlink:href="#m06d990493e" x="96.009961" y="249.383961" style="stroke: #000000"/>
     <use xlink:href="#m06d990493e" x="99.480451" y="247.376832" style="stroke: #000000"/>
     <use xlink:href="#m06d990493e" x="102.950942" y="245.410063" style="stroke: #000000"/>
     <use xlink:href="#m06d990493e" x="106.421432" y="243.475947" style="stroke: #000000"/>
     <use xlink:href="#m06d990493e" x="109.891923" y="241.568793" style="stroke: #000000"/>
     <use xlink:href="#m06d990493e" x="113.362414" y="239.684279" style="stroke: #000000"/>
     <use xlink:href="#m06d990493e" x="116.832904" y="237.819047" style="stroke: #000000"/>
     <use xlink:href="#m06d990493e" x="120.303395" y="235.970434" style="stroke: #000000"/>
     <use xlink:href="#m06d990493e" x="123.773885" y="234.136292" style="stroke: #000000"/>
     <use xlink:href="#m06d990493e" x="127.244376" y="232.314867" style="stroke: #000000"/>
     <use xlink:href="#m06d990493e" x="130.714867" y="230.504702" style="stroke: #000000"/>
     <use xlink:href="#m06d990493e" x="134.185357" y="228.704581" style="stroke: #000000"/>
     <use xlink:href="#m06d990493e" x="137.655848" y="226.913472" style="stroke: #000000"/>
     <use xlink:href="#m06d990493e" x="141.126338" y="225.130496" style="stroke: #000000"/>
     <use xlink:href="#m06d990493e" x="144.596829" y="223.354895" style="stroke: #000000"/>
     <use xlink:href="#m06d990493e" x="148.067319" y="221.586013" style="stroke: #000000"/>
     <use xlink:href="#m06d990493e" x="151.53781" y="219.82328" style="stroke: #000000"/>
     <use xlink:href="#m06d990493e" x="155.008301" y="218.066191" style="stroke: #000000"/>
     <use xlink:href="#m06d990493e" x="158.478791" y="216.314305" style="stroke: #000000"/>
     <use xlink:href="#m06d990493e" x="161.949282" y="214.567229" style="stroke: #000000"/>
     <use xlink:href="#m06d990493e" x="165.419772" y="212.824612" style="stroke: #000000"/>
     <use xlink:href="#m06d990493e" x="168.890263" y="211.086142" style="stroke: #000000"/>
     <use xlink:href="#m06d990493e" x="172.360754" y="209.351538" style="stroke: #000000"/>
     <use xlink:href="#m06d990493e" x="175.831244" y="207.620545" style="stroke: #000000"/>
     <use xlink:href="#m06d990493e" x="179.301735" y="205.892935" style="stroke: #000000"/>
     <use xlink:href="#m06d990493e" x="182.772225" y="204.168499" style="stroke: #000000"/>
     <use xlink:href="#m06d990493e" x="186.242716" y="202.447048" style="stroke: #000000"/>
     <use xlink:href="#m06d990493e" x="189.713206" y="200.728409" style="stroke: #000000"/>
     <use xlink:href="#m06d990493e" x="193.183697" y="199.012423" style="stroke: #000000"/>
     <use xlink:href="#m06d990493e" x="196.654188" y="197.298945" style="stroke: #000000"/>
     <use xlink:href="#m06d990493e" x="200.124678" y="195.587841" style="stroke: #000000"/>
     <use xlink:href="#m06d990493e" x="203.595169" y="193.878987" style="stroke: #000000"/>
     <use xlink:href="#m06d990493e" x="207.065659" y="192.172271" style="stroke: #000000"/>
     <use xlink:href="#m06d990493e" x="210.53615" y="190.467585" style="stroke: #000000"/>
     <use xlink:href="#m06d990493e" x="214.006641" y="188.764833" style="stroke: #000000"/>
     <use xlink:href="#m06d990493e" x="217.477131" y="187.063924" style="stroke: #000000"/>
     <use xlink:href="#m06d990493e" x="220.947622" y="185.364771" style="stroke: #000000"/>
     <use xlink:href="#m06d990493e" x="224.418112" y="183.667298" style="stroke: #000000"/>
     <use xlink:href="#m06d990493e" x="227.888603" y="181.971429" style="stroke: #000000"/>
     <use xlink:href="#m06d990493e" x="231.359093" y="180.277096" style="stroke: #000000"/>
     <use xlink:href="#m06d990493e" x="234.829584" y="178.584234" style="stroke: #000000"/>
     <use xlink:href="#m06d990493e" x="238.300075" y="176.892783" style="stroke: #000000"/>
     <use xlink:href="#m06d990493e" x="241.770565" y="175.202685" style="stroke: #000000"/>
     <use xlink:href="#m06d990493e" x="245.241056" y="173.513887" style="stroke: #000000"/>
     <use xlink:href="#m06d990493e" x="248.711546" y="171.826338" style="stroke: #000000"/>
     <use xlink:href="#m06d990493e" x="252.182037" y="170.139991" style="stroke: #000000"/>
     <use xlink:href="#m06d990493e" x="255.652527" y="168.4548" style="stroke: #000000"/>
     <use xlink:href="#m06d990493e" x="259.123018" y="166.770724" style="stroke: #000000"/>
     <use xlink:href="#m06d990493e" x="262.593509" y="165.087723" style="stroke: #000000"/>
     <use xlink:href="#m06d990493e" x="266.063999" y="163.405757" style="stroke: #000000"/>
     <use xlink:href="#m06d990493e" x="269.53449" y="161.724792" style="stroke: #000000"/>
     <use xlink:href="#m06d990493e" x="273.00498" y="160.044792" style="stroke: #000000"/>
     <use xlink:href="#m06d990493e" x="276.475471" y="158.365726" style="stroke: #000000"/>
     <use xlink:href="#m06d990493e" x="279.945962" y="156.687563" style="stroke: #000000"/>
     <use xlink:href="#m06d990493e" x="283.416452" y="155.010272" style="stroke: #000000"/>
     <use xlink:href="#m06d990493e" x="286.886943" y="153.333828" style="stroke: #000000"/>
     <use xlink:href="#m06d990493e" x="290.357433" y="151.658201" style="stroke: #000000"/>
     <use xlink:href="#m06d990493e" x="293.827924" y="149.983369" style="stroke: #000000"/>
     <use xlink:href="#m06d990493e" x="297.298414" y="148.309305" style="stroke: #000000"/>
     <use xlink:href="#m06d990493e" x="300.768905" y="146.635987" style="stroke: #000000"/>
     <use xlink:href="#m06d990493e" x="304.239396" y="144.963393" style="stroke: #000000"/>
     <use xlink:href="#m06d990493e" x="307.709886" y="143.291501" style="stroke: #000000"/>
     <use xlink:href="#m06d990493e" x="311.180377" y="141.620292" style="stroke: #000000"/>
     <use xlink:href="#m06d990493e" x="314.650867" y="139.949747" style="stroke: #000000"/>
     <use xlink:href="#m06d990493e" x="318.121358" y="138.279845" style="stroke: #000000"/>
     <use xlink:href="#m06d990493e" x="321.591849" y="136.610571" style="stroke: #000000"/>
     <use xlink:href="#m06d990493e" x="325.062339" y="134.941906" style="stroke: #000000"/>
     <use xlink:href="#m06d990493e" x="328.53283" y="133.273835" style="stroke: #000000"/>
     <use xlink:href="#m06d990493e" x="332.00332" y="131.606341" style="stroke: #000000"/>
     <use xlink:href="#m06d990493e" x="335.473811" y="129.93941" style="stroke: #000000"/>
     <use xlink:href="#m06d990493e" x="338.944301" y="128.273027" style="stroke: #000000"/>
     <use xlink:href="#m06d990493e" x="342.414792" y="126.607178" style="stroke: #000000"/>
     <use xlink:href="#m06d990493e" x="345.885283" y="124.941849" style="stroke: #000000"/>
     <use xlink:href="#m06d990493e" x="349.355773" y="123.277028" style="stroke: #000000"/>
     <use xlink:href="#m06d990493e" x="352.826264" y="121.612703" style="stroke: #000000"/>
     <use xlink:href="#m06d990493e" x="356.296754" y="119.948861" style="stroke: #000000"/>
     <use xlink:href="#m06d990493e" x="359.767245" y="118.28549" style="stroke: #000000"/>
     <use xlink:href="#m06d990493e" x="363.237735" y="116.62258" style="stroke: #000000"/>
     <use xlink:href="#m06d990493e" x="366.708226" y="114.960119" style="stroke: #000000"/>
     <use xlink:href="#m06d990493e" x="370.178717" y="113.298098" style="stroke: #000000"/>
     <use xlink:href="#m06d990493e" x="373.649207" y="111.636506" style="stroke: #000000"/>
     <use xlink:href="#m06d990493e" x="377.119698" y="109.975333" style="stroke: #000000"/>
     <use xlink:href="#m06d990493e" x="380.590188" y="108.314571" style="stroke: #000000"/>
     <use xlink:href="#m06d990493e" x="384.060679" y="106.65421" style="stroke: #000000"/>
     <use xlink:href="#m06d990493e" x="387.53117" y="104.994242" style="stroke: #000000"/>
     <use xlink:href="#m06d990493e" x="391.00166" y="103.334657" style="stroke: #000000"/>
     <use xlink:href="#m06d990493e" x="394.472151" y="101.675447" style="stroke: #000000"/>
     <use xlink:href="#m06d990493e" x="397.942641" y="100.016606" style="stroke: #000000"/>
     <use xlink:href="#m06d990493e" x="401.413132" y="98.358125" style="stroke: #000000"/>
     <use xlink:href="#m06d990493e" x="404.883622" y="96.699996" style="stroke: #000000"/>
     <use xlink:href="#m06d990493e" x="408.354113" y="95.042212" style="stroke: #000000"/>
     <use xlink:href="#m06d990493e" x="411.824604" y="93.384767" style="stroke: #000000"/>
     <use xlink:href="#m06d990493e" x="415.295094" y="91.727653" style="stroke: #000000"/>
     <use xlink:href="#m06d990493e" x="418.765585" y="90.070864" style="stroke: #000000"/>
     <use xlink:href="#m06d990493e" x="422.236075" y="88.414394" style="stroke: #000000"/>
     <use xlink:href="#m06d990493e" x="425.706566" y="86.758236" style="stroke: #000000"/>
     <use xlink:href="#m06d990493e" x="429.177057" y="85.102384" style="stroke: #000000"/>
     <use xlink:href="#m06d990493e" x="432.647547" y="83.446833" style="stroke: #000000"/>
     <use xlink:href="#m06d990493e" x="436.118038" y="81.791576" style="stroke: #000000"/>
     <use xlink:href="#m06d990493e" x="439.588528" y="80.136608" style="stroke: #000000"/>
     <use xlink:href="#m06d990493e" x="443.059019" y="78.481925" style="stroke: #000000"/>
     <use xlink:href="#m06d990493e" x="446.529509" y="76.827519" style="stroke: #000000"/>
     <use xlink:href="#m06d990493e" x="450" y="75.173388" style="stroke: #000000"/>
     <use xlink:href="#m06d990493e" x="453.470491" y="73.519524" style="stroke: #000000"/>
     <use xlink:href="#m06d990493e" x="456.940981" y="71.865925" style="stroke: #000000"/>
     <use xlink:href="#m06d990493e" x="460.411472" y="70.212584" style="stroke: #000000"/>
     <use xlink:href="#m06d990493e" x="463.881962" y="68.559498" style="stroke: #000000"/>
     <use xlink:href="#m06d990493e" x="467.352453" y="66.906662" style="stroke: #000000"/>
     <use xlink:href="#m06d990493e" x="470.822943" y="65.254072" style="stroke: #000000"/>
     <use xlink:href="#m06d990493e" x="474.293434" y="63.601723" style="stroke: #000000"/>
     <use xlink:href="#m06d990493e" x="477.763925" y="61.949611" style="stroke: #000000"/>
     <use xlink:href="#m06d990493e" x="481.234415" y="60.297733" style="stroke: #000000"/>
     <use xlink:href="#m06d990493e" x="484.704906" y="58.646084" style="stroke: #000000"/>
     <use xlink:href="#m06d990493e" x="488.175396" y="56.994661" style="stroke: #000000"/>
     <use xlink:href="#m06d990493e" x="491.645887" y="55.34346" style="stroke: #000000"/>
     <use xlink:href="#m06d990493e" x="495.116378" y="53.692477" style="stroke: #000000"/>
     <use xlink:href="#m06d990493e" x="498.586868" y="52.041709" style="stroke: #000000"/>
     <use xlink:href="#m06d990493e" x="502.057359" y="50.391152" style="stroke: #000000"/>
     <use xlink:href="#m06d990493e" x="505.527849" y="48.740803" style="stroke: #000000"/>
     <use xlink:href="#m06d990493e" x="508.99834" y="47.090659" style="stroke: #000000"/>
     <use xlink:href="#m06d990493e" x="512.46883" y="45.440716" style="stroke: #000000"/>
     <use xlink:href="#m06d990493e" x="515.939321" y="43.790971" style="stroke: #000000"/>
     <use xlink:href="#m06d990493e" x="519.409812" y="42.141422" style="stroke: #000000"/>
     <use xlink:href="#m06d990493e" x="522.880302" y="40.492065" style="stroke: #000000"/>
     <use xlink:href="#m06d990493e" x="526.350793" y="38.842897" style="stroke: #000000"/>
     <use xlink:href="#m06d990493e" x="529.821283" y="37.193916" style="stroke: #000000"/>
     <use xlink:href="#m06d990493e" x="533.291774" y="35.545118" style="stroke: #000000"/>
     <use xlink:href="#m06d990493e" x="536.762265" y="33.896501" style="stroke: #000000"/>
     <use xlink:href="#m06d990493e" x="540.232755" y="32.248063" style="stroke: #000000"/>
     <use xlink:href="#m06d990493e" x="543.703246" y="30.5998" style="stroke: #000000"/>
     <use xlink:href="#m06d990493e" x="547.173736" y="28.951711" style="stroke: #000000"/>
     <use xlink:href="#m06d990493e" x="550.644227" y="27.303791" style="stroke: #000000"/>
     <use xlink:href="#m06d990493e" x="554.114717" y="25.656041" style="stroke: #000000"/>
     <use xlink:href="#m06d990493e" x="557.585208" y="24.008456" style="stroke: #000000"/>
     <use xlink:href="#m06d990493e" x="561.055699" y="22.361034" style="stroke: #000000"/>
     <use xlink:href="#m06d990493e" x="564.526189" y="20.713773" style="stroke: #000000"/>
     <use xlink:href="#m06d990493e" x="567.99668" y="19.066672" style="stroke: #000000"/>
     <use xlink:href="#m06d990493e" x="571.46717" y="17.419727" style="stroke: #000000"/>
     <use xlink:href="#m06d990493e" x="574.937661" y="15.772936" style="stroke: #000000"/>
     <use xlink:href="#m06d990493e" x="578.408151" y="14.126298" style="stroke: #000000"/>
     <use xlink:href="#m06d990493e" x="581.878642" y="12.47981" style="stroke: #000000"/>
     <use xlink:href="#m06d990493e" x="585.349133" y="10.833471" style="stroke: #000000"/>
     <use xlink:href="#m06d990493e" x="588.819623" y="9.187278" style="stroke: #000000"/>
     <use xlink:href="#m06d990493e" x="592.290114" y="7.541229" style="stroke: #000000"/>
     <use xlink:href="#m06d990493e" x="595.760604" y="5.895323" style="stroke: #000000"/>
     <use xlink:href="#m06d990493e" x="599.231095" y="4.249558" style="stroke: #000000"/>
     <use xlink:href="#m06d990493e" x="602.701586" y="2.603931" style="stroke: #000000"/>
     <use xlink:href="#m06d990493e" x="606.172076" y="0.958441" style="stroke: #000000"/>
     <use xlink:href="#m06d990493e" x="609.642567" y="-0.686913" style="stroke: #000000"/>
     <use xlink:href="#m06d990493e" x="610.303004" y="-1" style="stroke: #000000"/>
    </g>
   </g>
   <g id="line2d_14">
    <path d="M 68.246036 263.63469 
L 71.716527 280.347424 
L 75.187017 263.63469 
L 78.657508 253.184154 
L 82.127998 245.297494 
L 85.598489 238.815694 
L 89.06898 233.222498 
L 92.53947 228.242519 
L 96.009961 223.711376 
L 99.480451 219.523041 
L 102.950942 215.605115 
L 106.421432 211.905963 
L 113.362414 205.020645 
L 120.303395 198.656736 
L 127.244376 192.68329 
L 134.185357 187.013234 
L 141.126338 181.585717 
L 151.53781 173.805652 
L 161.949282 166.368394 
L 172.360754 159.201547 
L 186.242716 149.97918 
L 200.124678 141.060201 
L 214.006641 132.383762 
L 231.359093 121.813061 
L 248.711546 111.490119 
L 269.53449 99.366327 
L 293.827924 85.514786 
L 318.121358 71.917176 
L 345.885283 56.628024 
L 377.119698 39.687218 
L 411.824604 21.124699 
L 450 0.962163 
L 453.738846 -1 
L 453.738846 -1 
" clip-path="url(#p5f3fb6c303)" style="fill: none; stroke: #000000; stroke-width: 4; stroke-linecap: square"/>
   </g>
   <g id="patch_3">
    <path d="M 68.246036 263.63469 
L 68.246036 36.210148 
" style="fill: none; stroke: #000000; stroke-width: 0.8; stroke-linejoin: miter; stroke-linecap: square"/>
   </g>
   <g id="patch_4">
    <path d="M 450 263.63469 
L 450 36.210148 
" style="fill: none; stroke: #000000; stroke-width: 0.8; stroke-linejoin: miter; stroke-linecap: square"/>
   </g>
   <g id="patch_5">
    <path d="M 68.246036 263.63469 
L 450 263.63469 
" style="fill: none; stroke: #000000; stroke-width: 0.8; stroke-linejoin: miter; stroke-linecap: square"/>
   </g>
   <g id="patch_6">
    <path d="M 68.246036 36.210148 
L 450 36.210148 
" style="fill: none; stroke: #000000; stroke-width: 0.8; stroke-linejoin: miter; stroke-linecap: square"/>
   </g>
  </g>
 </g>
 <defs>
  <clipPath id="p5f3fb6c303">
   <rect x="68.246036" y="36.210148" width="381.753964" height="227.424541"/>
  </clipPath>
 </defs>
 <defs>
  <pattern id="haf4f352f69" patternUnits="userSpaceOnUse" x="0" y="0" width="72" height="72">
   <rect x="0" y="0" width="73" height="73" fill="#008000"/>
   <path d="M 0 73.2 
C 0.318244 73.2 0.623496 73.07356 0.848528 72.848528 
C 1.07356 72.623496 1.2 72.318244 1.2 72 
C 1.2 71.681756 1.07356 71.376504 0.848528 71.151472 
C 0.623496 70.92644 0.318244 70.8 0 70.8 
C -0.318244 70.8 -0.623496 70.92644 -0.848528 71.151472 
C -1.07356 71.376504 -1.2 71.681756 -1.2 72 
C -1.2 72.318244 -1.07356 72.623496 -0.848528 72.848528 
C -0.623496 73.07356 -0.318244 73.2 0 73.2 
z
M 12 73.2 
C 12.318244 73.2 12.623496 73.07356 12.848528 72.848528 
C 13.07356 72.623496 13.2 72.318244 13.2 72 
C 13.2 71.681756 13.07356 71.376504 12.848528 71.151472 
C 12.623496 70.92644 12.318244 70.8 12 70.8 
C 11.681756 70.8 11.376504 70.92644 11.151472 71.151472 
C 10.92644 71.376504 10.8 71.681756 10.8 72 
C 10.8 72.318244 10.92644 72.623496 11.151472 72.848528 
C 11.376504 73.07356 11.681756 73.2 12 73.2 
z
M 24 73.2 
C 24.318244 73.2 24.623496 73.07356 24.848528 72.848528 
C 25.07356 72.623496 25.2 72.318244 25.2 72 
C 25.2 71.681756 25.07356 71.376504 24.848528 71.151472 
C 24.623496 70.92644 24.318244 70.8 24 70.8 
C 23.681756 70.8 23.376504 70.92644 23.151472 71.151472 
C 22.92644 71.376504 22.8 71.681756 22.8 72 
C 22.8 72.318244 22.92644 72.623496 23.151472 72.848528 
C 23.376504 73.07356 23.681756 73.2 24 73.2 
z
M 36 73.2 
C 36.318244 73.2 36.623496 73.07356 36.848528 72.848528 
C 37.07356 72.623496 37.2 72.318244 37.2 72 
C 37.2 71.681756 37.07356 71.376504 36.848528 71.151472 
C 36.623496 70.92644 36.318244 70.8 36 70.8 
C 35.681756 70.8 35.376504 70.92644 35.151472 71.151472 
C 34.92644 71.376504 34.8 71.681756 34.8 72 
C 34.8 72.318244 34.92644 72.623496 35.151472 72.848528 
C 35.376504 73.07356 35.681756 73.2 36 73.2 
z
M 48 73.2 
C 48.318244 73.2 48.623496 73.07356 48.848528 72.848528 
C 49.07356 72.623496 49.2 72.318244 49.2 72 
C 49.2 71.681756 49.07356 71.376504 48.848528 71.151472 
C 48.623496 70.92644 48.318244 70.8 48 70.8 
C 47.681756 70.8 47.376504 70.92644 47.151472 71.151472 
C 46.92644 71.376504 46.8 71.681756 46.8 72 
C 46.8 72.318244 46.92644 72.623496 47.151472 72.848528 
C 47.376504 73.07356 47.681756 73.2 48 73.2 
z
M 60 73.2 
C 60.318244 73.2 60.623496 73.07356 60.848528 72.848528 
C 61.07356 72.623496 61.2 72.318244 61.2 72 
C 61.2 71.681756 61.07356 71.376504 60.848528 71.151472 
C 60.623496 70.92644 60.318244 70.8 60 70.8 
C 59.681756 70.8 59.376504 70.92644 59.151472 71.151472 
C 58.92644 71.376504 58.8 71.681756 58.8 72 
C 58.8 72.318244 58.92644 72.623496 59.151472 72.848528 
C 59.376504 73.07356 59.681756 73.2 60 73.2 
z
M 72 73.2 
C 72.318244 73.2 72.623496 73.07356 72.848528 72.848528 
C 73.07356 72.623496 73.2 72.318244 73.2 72 
C 73.2 71.681756 73.07356 71.376504 72.848528 71.151472 
C 72.623496 70.92644 72.318244 70.8 72 70.8 
C 71.681756 70.8 71.376504 70.92644 71.151472 71.151472 
C 70.92644 71.376504 70.8 71.681756 70.8 72 
C 70.8 72.318244 70.92644 72.623496 71.151472 72.848528 
C 71.376504 73.07356 71.681756 73.2 72 73.2 
z
M 6 61.2 
C 6.318244 61.2 6.623496 61.07356 6.848528 60.848528 
C 7.07356 60.623496 7.2 60.318244 7.2 60 
C 7.2 59.681756 7.07356 59.376504 6.848528 59.151472 
C 6.623496 58.92644 6.318244 58.8 6 58.8 
C 5.681756 58.8 5.376504 58.92644 5.151472 59.151472 
C 4.92644 59.376504 4.8 59.681756 4.8 60 
C 4.8 60.318244 4.92644 60.623496 5.151472 60.848528 
C 5.376504 61.07356 5.681756 61.2 6 61.2 
z
M 18 61.2 
C 18.318244 61.2 18.623496 61.07356 18.848528 60.848528 
C 19.07356 60.623496 19.2 60.318244 19.2 60 
C 19.2 59.681756 19.07356 59.376504 18.848528 59.151472 
C 18.623496 58.92644 18.318244 58.8 18 58.8 
C 17.681756 58.8 17.376504 58.92644 17.151472 59.151472 
C 16.92644 59.376504 16.8 59.681756 16.8 60 
C 16.8 60.318244 16.92644 60.623496 17.151472 60.848528 
C 17.376504 61.07356 17.681756 61.2 18 61.2 
z
M 30 61.2 
C 30.318244 61.2 30.623496 61.07356 30.848528 60.848528 
C 31.07356 60.623496 31.2 60.318244 31.2 60 
C 31.2 59.681756 31.07356 59.376504 30.848528 59.151472 
C 30.623496 58.92644 30.318244 58.8 30 58.8 
C 29.681756 58.8 29.376504 58.92644 29.151472 59.151472 
C 28.92644 59.376504 28.8 59.681756 28.8 60 
C 28.8 60.318244 28.92644 60.623496 29.151472 60.848528 
C 29.376504 61.07356 29.681756 61.2 30 61.2 
z
M 42 61.2 
C 42.318244 61.2 42.623496 61.07356 42.848528 60.848528 
C 43.07356 60.623496 43.2 60.318244 43.2 60 
C 43.2 59.681756 43.07356 59.376504 42.848528 59.151472 
C 42.623496 58.92644 42.318244 58.8 42 58.8 
C 41.681756 58.8 41.376504 58.92644 41.151472 59.151472 
C 40.92644 59.376504 40.8 59.681756 40.8 60 
C 40.8 60.318244 40.92644 60.623496 41.151472 60.848528 
C 41.376504 61.07356 41.681756 61.2 42 61.2 
z
M 54 61.2 
C 54.318244 61.2 54.623496 61.07356 54.848528 60.848528 
C 55.07356 60.623496 55.2 60.318244 55.2 60 
C 55.2 59.681756 55.07356 59.376504 54.848528 59.151472 
C 54.623496 58.92644 54.318244 58.8 54 58.8 
C 53.681756 58.8 53.376504 58.92644 53.151472 59.151472 
C 52.92644 59.376504 52.8 59.681756 52.8 60 
C 52.8 60.318244 52.92644 60.623496 53.151472 60.848528 
C 53.376504 61.07356 53.681756 61.2 54 61.2 
z
M 66 61.2 
C 66.318244 61.2 66.623496 61.07356 66.848528 60.848528 
C 67.07356 60.623496 67.2 60.318244 67.2 60 
C 67.2 59.681756 67.07356 59.376504 66.848528 59.151472 
C 66.623496 58.92644 66.318244 58.8 66 58.8 
C 65.681756 58.8 65.376504 58.92644 65.151472 59.151472 
C 64.92644 59.376504 64.8 59.681756 64.8 60 
C 64.8 60.318244 64.92644 60.623496 65.151472 60.848528 
C 65.376504 61.07356 65.681756 61.2 66 61.2 
z
M 0 49.2 
C 0.318244 49.2 0.623496 49.07356 0.848528 48.848528 
C 1.07356 48.623496 1.2 48.318244 1.2 48 
C 1.2 47.681756 1.07356 47.376504 0.848528 47.151472 
C 0.623496 46.92644 0.318244 46.8 0 46.8 
C -0.318244 46.8 -0.623496 46.92644 -0.848528 47.151472 
C -1.07356 47.376504 -1.2 47.681756 -1.2 48 
C -1.2 48.318244 -1.07356 48.623496 -0.848528 48.848528 
C -0.623496 49.07356 -0.318244 49.2 0 49.2 
z
M 12 49.2 
C 12.318244 49.2 12.623496 49.07356 12.848528 48.848528 
C 13.07356 48.623496 13.2 48.318244 13.2 48 
C 13.2 47.681756 13.07356 47.376504 12.848528 47.151472 
C 12.623496 46.92644 12.318244 46.8 12 46.8 
C 11.681756 46.8 11.376504 46.92644 11.151472 47.151472 
C 10.92644 47.376504 10.8 47.681756 10.8 48 
C 10.8 48.318244 10.92644 48.623496 11.151472 48.848528 
C 11.376504 49.07356 11.681756 49.2 12 49.2 
z
M 24 49.2 
C 24.318244 49.2 24.623496 49.07356 24.848528 48.848528 
C 25.07356 48.623496 25.2 48.318244 25.2 48 
C 25.2 47.681756 25.07356 47.376504 24.848528 47.151472 
C 24.623496 46.92644 24.318244 46.8 24 46.8 
C 23.681756 46.8 23.376504 46.92644 23.151472 47.151472 
C 22.92644 47.376504 22.8 47.681756 22.8 48 
C 22.8 48.318244 22.92644 48.623496 23.151472 48.848528 
C 23.376504 49.07356 23.681756 49.2 24 49.2 
z
M 36 49.2 
C 36.318244 49.2 36.623496 49.07356 36.848528 48.848528 
C 37.07356 48.623496 37.2 48.318244 37.2 48 
C 37.2 47.681756 37.07356 47.376504 36.848528 47.151472 
C 36.623496 46.92644 36.318244 46.8 36 46.8 
C 35.681756 46.8 35.376504 46.92644 35.151472 47.151472 
C 34.92644 47.376504 34.8 47.681756 34.8 48 
C 34.8 48.318244 34.92644 48.623496 35.151472 48.848528 
C 35.376504 49.07356 35.681756 49.2 36 49.2 
z
M 48 49.2 
C 48.318244 49.2 48.623496 49.07356 48.848528 48.848528 
C 49.07356 48.623496 49.2 48.318244 49.2 48 
C 49.2 47.681756 49.07356 47.376504 48.848528 47.151472 
C 48.623496 46.92644 48.318244 46.8 48 46.8 
C 47.681756 46.8 47.376504 46.92644 47.151472 47.151472 
C 46.92644 47.376504 46.8 47.681756 46.8 48 
C 46.8 48.318244 46.92644 48.623496 47.151472 48.848528 
C 47.376504 49.07356 47.681756 49.2 48 49.2 
z
M 60 49.2 
C 60.318244 49.2 60.623496 49.07356 60.848528 48.848528 
C 61.07356 48.623496 61.2 48.318244 61.2 48 
C 61.2 47.681756 61.07356 47.376504 60.848528 47.151472 
C 60.623496 46.92644 60.318244 46.8 60 46.8 
C 59.681756 46.8 59.376504 46.92644 59.151472 47.151472 
C 58.92644 47.376504 58.8 47.681756 58.8 48 
C 58.8 48.318244 58.92644 48.623496 59.151472 48.848528 
C 59.376504 49.07356 59.681756 49.2 60 49.2 
z
M 72 49.2 
C 72.318244 49.2 72.623496 49.07356 72.848528 48.848528 
C 73.07356 48.623496 73.2 48.318244 73.2 48 
C 73.2 47.681756 73.07356 47.376504 72.848528 47.151472 
C 72.623496 46.92644 72.318244 46.8 72 46.8 
C 71.681756 46.8 71.376504 46.92644 71.151472 47.151472 
C 70.92644 47.376504 70.8 47.681756 70.8 48 
C 70.8 48.318244 70.92644 48.623496 71.151472 48.848528 
C 71.376504 49.07356 71.681756 49.2 72 49.2 
z
M 6 37.2 
C 6.318244 37.2 6.623496 37.07356 6.848528 36.848528 
C 7.07356 36.623496 7.2 36.318244 7.2 36 
C 7.2 35.681756 7.07356 35.376504 6.848528 35.151472 
C 6.623496 34.92644 6.318244 34.8 6 34.8 
C 5.681756 34.8 5.376504 34.92644 5.151472 35.151472 
C 4.92644 35.376504 4.8 35.681756 4.8 36 
C 4.8 36.318244 4.92644 36.623496 5.151472 36.848528 
C 5.376504 37.07356 5.681756 37.2 6 37.2 
z
M 18 37.2 
C 18.318244 37.2 18.623496 37.07356 18.848528 36.848528 
C 19.07356 36.623496 19.2 36.318244 19.2 36 
C 19.2 35.681756 19.07356 35.376504 18.848528 35.151472 
C 18.623496 34.92644 18.318244 34.8 18 34.8 
C 17.681756 34.8 17.376504 34.92644 17.151472 35.151472 
C 16.92644 35.376504 16.8 35.681756 16.8 36 
C 16.8 36.318244 16.92644 36.623496 17.151472 36.848528 
C 17.376504 37.07356 17.681756 37.2 18 37.2 
z
M 30 37.2 
C 30.318244 37.2 30.623496 37.07356 30.848528 36.848528 
C 31.07356 36.623496 31.2 36.318244 31.2 36 
C 31.2 35.681756 31.07356 35.376504 30.848528 35.151472 
C 30.623496 34.92644 30.318244 34.8 30 34.8 
C 29.681756 34.8 29.376504 34.92644 29.151472 35.151472 
C 28.92644 35.376504 28.8 35.681756 28.8 36 
C 28.8 36.318244 28.92644 36.623496 29.151472 36.848528 
C 29.376504 37.07356 29.681756 37.2 30 37.2 
z
M 42 37.2 
C 42.318244 37.2 42.623496 37.07356 42.848528 36.848528 
C 43.07356 36.623496 43.2 36.318244 43.2 36 
C 43.2 35.681756 43.07356 35.376504 42.848528 35.151472 
C 42.623496 34.92644 42.318244 34.8 42 34.8 
C 41.681756 34.8 41.376504 34.92644 41.151472 35.151472 
C 40.92644 35.376504 40.8 35.681756 40.8 36 
C 40.8 36.318244 40.92644 36.623496 41.151472 36.848528 
C 41.376504 37.07356 41.681756 37.2 42 37.2 
z
M 54 37.2 
C 54.318244 37.2 54.623496 37.07356 54.848528 36.848528 
C 55.07356 36.623496 55.2 36.318244 55.2 36 
C 55.2 35.681756 55.07356 35.376504 54.848528 35.151472 
C 54.623496 34.92644 54.318244 34.8 54 34.8 
C 53.681756 34.8 53.376504 34.92644 53.151472 35.151472 
C 52.92644 35.376504 52.8 35.681756 52.8 36 
C 52.8 36.318244 52.92644 36.623496 53.151472 36.848528 
C 53.376504 37.07356 53.681756 37.2 54 37.2 
z
M 66 37.2 
C 66.318244 37.2 66.623496 37.07356 66.848528 36.848528 
C 67.07356 36.623496 67.2 36.318244 67.2 36 
C 67.2 35.681756 67.07356 35.376504 66.848528 35.151472 
C 66.623496 34.92644 66.318244 34.8 66 34.8 
C 65.681756 34.8 65.376504 34.92644 65.151472 35.151472 
C 64.92644 35.376504 64.8 35.681756 64.8 36 
C 64.8 36.318244 64.92644 36.623496 65.151472 36.848528 
C 65.376504 37.07356 65.681756 37.2 66 37.2 
z
M 0 25.2 
C 0.318244 25.2 0.623496 25.07356 0.848528 24.848528 
C 1.07356 24.623496 1.2 24.318244 1.2 24 
C 1.2 23.681756 1.07356 23.376504 0.848528 23.151472 
C 0.623496 22.92644 0.318244 22.8 0 22.8 
C -0.318244 22.8 -0.623496 22.92644 -0.848528 23.151472 
C -1.07356 23.376504 -1.2 23.681756 -1.2 24 
C -1.2 24.318244 -1.07356 24.623496 -0.848528 24.848528 
C -0.623496 25.07356 -0.318244 25.2 0 25.2 
z
M 12 25.2 
C 12.318244 25.2 12.623496 25.07356 12.848528 24.848528 
C 13.07356 24.623496 13.2 24.318244 13.2 24 
C 13.2 23.681756 13.07356 23.376504 12.848528 23.151472 
C 12.623496 22.92644 12.318244 22.8 12 22.8 
C 11.681756 22.8 11.376504 22.92644 11.151472 23.151472 
C 10.92644 23.376504 10.8 23.681756 10.8 24 
C 10.8 24.318244 10.92644 24.623496 11.151472 24.848528 
C 11.376504 25.07356 11.681756 25.2 12 25.2 
z
M 24 25.2 
C 24.318244 25.2 24.623496 25.07356 24.848528 24.848528 
C 25.07356 24.623496 25.2 24.318244 25.2 24 
C 25.2 23.681756 25.07356 23.376504 24.848528 23.151472 
C 24.623496 22.92644 24.318244 22.8 24 22.8 
C 23.681756 22.8 23.376504 22.92644 23.151472 23.151472 
C 22.92644 23.376504 22.8 23.681756 22.8 24 
C 22.8 24.318244 22.92644 24.623496 23.151472 24.848528 
C 23.376504 25.07356 23.681756 25.2 24 25.2 
z
M 36 25.2 
C 36.318244 25.2 36.623496 25.07356 36.848528 24.848528 
C 37.07356 24.623496 37.2 24.318244 37.2 24 
C 37.2 23.681756 37.07356 23.376504 36.848528 23.151472 
C 36.623496 22.92644 36.318244 22.8 36 22.8 
C 35.681756 22.8 35.376504 22.92644 35.151472 23.151472 
C 34.92644 23.376504 34.8 23.681756 34.8 24 
C 34.8 24.318244 34.92644 24.623496 35.151472 24.848528 
C 35.376504 25.07356 35.681756 25.2 36 25.2 
z
M 48 25.2 
C 48.318244 25.2 48.623496 25.07356 48.848528 24.848528 
C 49.07356 24.623496 49.2 24.318244 49.2 24 
C 49.2 23.681756 49.07356 23.376504 48.848528 23.151472 
C 48.623496 22.92644 48.318244 22.8 48 22.8 
C 47.681756 22.8 47.376504 22.92644 47.151472 23.151472 
C 46.92644 23.376504 46.8 23.681756 46.8 24 
C 46.8 24.318244 46.92644 24.623496 47.151472 24.848528 
C 47.376504 25.07356 47.681756 25.2 48 25.2 
z
M 60 25.2 
C 60.318244 25.2 60.623496 25.07356 60.848528 24.848528 
C 61.07356 24.623496 61.2 24.318244 61.2 24 
C 61.2 23.681756 61.07356 23.376504 60.848528 23.151472 
C 60.623496 22.92644 60.318244 22.8 60 22.8 
C 59.681756 22.8 59.376504 22.92644 59.151472 23.151472 
C 58.92644 23.376504 58.8 23.681756 58.8 24 
C 58.8 24.318244 58.92644 24.623496 59.151472 24.848528 
C 59.376504 25.07356 59.681756 25.2 60 25.2 
z
M 72 25.2 
C 72.318244 25.2 72.623496 25.07356 72.848528 24.848528 
C 73.07356 24.623496 73.2 24.318244 73.2 24 
C 73.2 23.681756 73.07356 23.376504 72.848528 23.151472 
C 72.623496 22.92644 72.318244 22.8 72 22.8 
C 71.681756 22.8 71.376504 22.92644 71.151472 23.151472 
C 70.92644 23.376504 70.8 23.681756 70.8 24 
C 70.8 24.318244 70.92644 24.623496 71.151472 24.848528 
C 71.376504 25.07356 71.681756 25.2 72 25.2 
z
M 6 13.2 
C 6.318244 13.2 6.623496 13.07356 6.848528 12.848528 
C 7.07356 12.623496 7.2 12.318244 7.2 12 
C 7.2 11.681756 7.07356 11.376504 6.848528 11.151472 
C 6.623496 10.92644 6.318244 10.8 6 10.8 
C 5.681756 10.8 5.376504 10.92644 5.151472 11.151472 
C 4.92644 11.376504 4.8 11.681756 4.8 12 
C 4.8 12.318244 4.92644 12.623496 5.151472 12.848528 
C 5.376504 13.07356 5.681756 13.2 6 13.2 
z
M 18 13.2 
C 18.318244 13.2 18.623496 13.07356 18.848528 12.848528 
C 19.07356 12.623496 19.2 12.318244 19.2 12 
C 19.2 11.681756 19.07356 11.376504 18.848528 11.151472 
C 18.623496 10.92644 18.318244 10.8 18 10.8 
C 17.681756 10.8 17.376504 10.92644 17.151472 11.151472 
C 16.92644 11.376504 16.8 11.681756 16.8 12 
C 16.8 12.318244 16.92644 12.623496 17.151472 12.848528 
C 17.376504 13.07356 17.681756 13.2 18 13.2 
z
M 30 13.2 
C 30.318244 13.2 30.623496 13.07356 30.848528 12.848528 
C 31.07356 12.623496 31.2 12.318244 31.2 12 
C 31.2 11.681756 31.07356 11.376504 30.848528 11.151472 
C 30.623496 10.92644 30.318244 10.8 30 10.8 
C 29.681756 10.8 29.376504 10.92644 29.151472 11.151472 
C 28.92644 11.376504 28.8 11.681756 28.8 12 
C 28.8 12.318244 28.92644 12.623496 29.151472 12.848528 
C 29.376504 13.07356 29.681756 13.2 30 13.2 
z
M 42 13.2 
C 42.318244 13.2 42.623496 13.07356 42.848528 12.848528 
C 43.07356 12.623496 43.2 12.318244 43.2 12 
C 43.2 11.681756 43.07356 11.376504 42.848528 11.151472 
C 42.623496 10.92644 42.318244 10.8 42 10.8 
C 41.681756 10.8 41.376504 10.92644 41.151472 11.151472 
C 40.92644 11.376504 40.8 11.681756 40.8 12 
C 40.8 12.318244 40.92644 12.623496 41.151472 12.848528 
C 41.376504 13.07356 41.681756 13.2 42 13.2 
z
M 54 13.2 
C 54.318244 13.2 54.623496 13.07356 54.848528 12.848528 
C 55.07356 12.623496 55.2 12.318244 55.2 12 
C 55.2 11.681756 55.07356 11.376504 54.848528 11.151472 
C 54.623496 10.92644 54.318244 10.8 54 10.8 
C 53.681756 10.8 53.376504 10.92644 53.151472 11.151472 
C 52.92644 11.376504 52.8 11.681756 52.8 12 
C 52.8 12.318244 52.92644 12.623496 53.151472 12.848528 
C 53.376504 13.07356 53.681756 13.2 54 13.2 
z
M 66 13.2 
C 66.318244 13.2 66.623496 13.07356 66.848528 12.848528 
C 67.07356 12.623496 67.2 12.318244 67.2 12 
C 67.2 11.681756 67.07356 11.376504 66.848528 11.151472 
C 66.623496 10.92644 66.318244 10.8 66 10.8 
C 65.681756 10.8 65.376504 10.92644 65.151472 11.151472 
C 64.92644 11.376504 64.8 11.681756 64.8 12 
C 64.8 12.318244 64.92644 12.623496 65.151472 12.848528 
C 65.376504 13.07356 65.681756 13.2 66 13.2 
z
M 0 1.2 
C 0.318244 1.2 0.623496 1.07356 0.848528 0.848528 
C 1.07356 0.623496 1.2 0.318244 1.2 0 
C 1.2 -0.318244 1.07356 -0.623496 0.848528 -0.848528 
C 0.623496 -1.07356 0.318244 -1.2 0 -1.2 
C -0.318244 -1.2 -0.623496 -1.07356 -0.848528 -0.848528 
C -1.07356 -0.623496 -1.2 -0.318244 -1.2 0 
C -1.2 0.318244 -1.07356 0.623496 -0.848528 0.848528 
C -0.623496 1.07356 -0.318244 1.2 0 1.2 
z
M 12 1.2 
C 12.318244 1.2 12.623496 1.07356 12.848528 0.848528 
C 13.07356 0.623496 13.2 0.318244 13.2 0 
C 13.2 -0.318244 13.07356 -0.623496 12.848528 -0.848528 
C 12.623496 -1.07356 12.318244 -1.2 12 -1.2 
C 11.681756 -1.2 11.376504 -1.07356 11.151472 -0.848528 
C 10.92644 -0.623496 10.8 -0.318244 10.8 0 
C 10.8 0.318244 10.92644 0.623496 11.151472 0.848528 
C 11.376504 1.07356 11.681756 1.2 12 1.2 
z
M 24 1.2 
C 24.318244 1.2 24.623496 1.07356 24.848528 0.848528 
C 25.07356 0.623496 25.2 0.318244 25.2 0 
C 25.2 -0.318244 25.07356 -0.623496 24.848528 -0.848528 
C 24.623496 -1.07356 24.318244 -1.2 24 -1.2 
C 23.681756 -1.2 23.376504 -1.07356 23.151472 -0.848528 
C 22.92644 -0.623496 22.8 -0.318244 22.8 0 
C 22.8 0.318244 22.92644 0.623496 23.151472 0.848528 
C 23.376504 1.07356 23.681756 1.2 24 1.2 
z
M 36 1.2 
C 36.318244 1.2 36.623496 1.07356 36.848528 0.848528 
C 37.07356 0.623496 37.2 0.318244 37.2 0 
C 37.2 -0.318244 37.07356 -0.623496 36.848528 -0.848528 
C 36.623496 -1.07356 36.318244 -1.2 36 -1.2 
C 35.681756 -1.2 35.376504 -1.07356 35.151472 -0.848528 
C 34.92644 -0.623496 34.8 -0.318244 34.8 0 
C 34.8 0.318244 34.92644 0.623496 35.151472 0.848528 
C 35.376504 1.07356 35.681756 1.2 36 1.2 
z
M 48 1.2 
C 48.318244 1.2 48.623496 1.07356 48.848528 0.848528 
C 49.07356 0.623496 49.2 0.318244 49.2 0 
C 49.2 -0.318244 49.07356 -0.623496 48.848528 -0.848528 
C 48.623496 -1.07356 48.318244 -1.2 48 -1.2 
C 47.681756 -1.2 47.376504 -1.07356 47.151472 -0.848528 
C 46.92644 -0.623496 46.8 -0.318244 46.8 0 
C 46.8 0.318244 46.92644 0.623496 47.151472 0.848528 
C 47.376504 1.07356 47.681756 1.2 48 1.2 
z
M 60 1.2 
C 60.318244 1.2 60.623496 1.07356 60.848528 0.848528 
C 61.07356 0.623496 61.2 0.318244 61.2 0 
C 61.2 -0.318244 61.07356 -0.623496 60.848528 -0.848528 
C 60.623496 -1.07356 60.318244 -1.2 60 -1.2 
C 59.681756 -1.2 59.376504 -1.07356 59.151472 -0.848528 
C 58.92644 -0.623496 58.8 -0.318244 58.8 0 
C 58.8 0.318244 58.92644 0.623496 59.151472 0.848528 
C 59.376504 1.07356 59.681756 1.2 60 1.2 
z
M 72 1.2 
C 72.318244 1.2 72.623496 1.07356 72.848528 0.848528 
C 73.07356 0.623496 73.2 0.318244 73.2 0 
C 73.2 -0.318244 73.07356 -0.623496 72.848528 -0.848528 
C 72.623496 -1.07356 72.318244 -1.2 72 -1.2 
C 71.681756 -1.2 71.376504 -1.07356 71.151472 -0.848528 
C 70.92644 -0.623496 70.8 -0.318244 70.8 0 
C 70.8 0.318244 70.92644 0.623496 71.151472 0.848528 
C 71.376504 1.07356 71.681756 1.2 72 1.2 
z
" style="fill: #008000; stroke: #008000; stroke-width: 1.0; stroke-linecap: butt; stroke-linejoin: miter"/>
  </pattern>
 </defs>
</svg>
