<?xml version="1.0" encoding="utf-8" standalone="no"?>
<!DOCTYPE svg PUBLIC "-//W3C//DTD SVG 1.1//EN"
  "http://www.w3.org/Graphics/SVG/1.1/DTD/svg11.dtd">
<svg xmlns:xlink="http://www.w3.org/1999/xlink" width="460.8pt" height="345.6pt" viewBox="0 0 460.8 345.6" xmlns="http://www.w3.org/2000/svg" version="1.1">
 <metadata>
  <rdf:RDF xmlns:dc="http://purl.org/dc/elements/1.1/" xmlns:cc="http://creativecommons.org/ns#" xmlns:rdf="http://www.w3.org/1999/02/22-rdf-syntax-ns#">
   <cc:Work>
    <dc:type rdf:resource="http://purl.org/dc/dcmitype/StillImage"/>
    <dc:date>2023-09-11T11:41:58.410392</dc:date>
    <dc:format>image/svg+xml</dc:format>
    <dc:creator>
     <cc:Agent>
      <dc:title>Matplotlib v3.6.3, https://matplotlib.org/</dc:title>
     </cc:Agent>
    </dc:creator>
   </cc:Work>
  </rdf:RDF>
 </metadata>
 <defs>
  <style type="text/css">*{stroke-linejoin: round; stroke-linecap: butt}</style>
 </defs>
 <g id="figure_1">
  <g id="patch_1">
   <path d="M 0 345.6 
L 460.8 345.6 
L 460.8 0 
L 0 0 
z
" style="fill: #ffffff"/>
  </g>
  <g id="axes_1">
   <g id="patch_2">
    <path d="M 53.769713 282.398311 
L 450 282.398311 
L 450 29.204422 
L 53.769713 29.204422 
z
" style="fill: #ffffff"/>
   </g>
   <g id="PolyCollection_1">
    <path d="M 53.769713 282.398311 
L 53.769713 282.398311 
L 62.024511 301.004756 
L 70.279308 282.398311 
L 78.534106 270.763631 
L 86.788904 261.983338 
L 95.043701 254.767088 
L 103.298499 248.54013 
L 111.553297 242.995873 
L 119.808094 237.951309 
L 128.062892 233.288395 
L 136.31769 228.926532 
L 144.572487 224.808231 
L 152.827285 220.891046 
L 161.082083 217.142742 
L 169.33688 213.538261 
L 177.591678 210.057741 
L 185.846475 206.685169 
L 194.101273 203.407448 
L 202.356071 200.213728 
L 210.610868 197.09492 
L 218.865666 194.043337 
L 227.120464 191.052415 
L 235.375261 188.116508 
L 243.630059 185.230724 
L 251.884857 182.390795 
L 260.139654 179.592976 
L 268.394452 176.833963 
L 276.64925 174.110826 
L 284.904047 171.420955 
L 293.158845 168.762014 
L 301.413642 166.131907 
L 309.66844 163.528742 
L 317.923238 160.950808 
L 326.178035 158.396551 
L 334.432833 155.864558 
L 342.687631 153.353539 
L 350.942428 150.86231 
L 359.197226 148.389788 
L 367.452024 145.934975 
L 375.706821 143.49695 
L 383.961619 141.074864 
L 392.216417 138.667929 
L 400.471214 136.275414 
L 408.726012 133.896642 
L 416.980809 131.53098 
L 425.235607 129.177839 
L 433.490405 126.836668 
L 441.745202 124.506953 
L 450 122.188211 
L 458.254798 119.87999 
L 458.254798 282.398311 
L 458.254798 282.398311 
L 450 282.398311 
L 441.745202 282.398311 
L 433.490405 282.398311 
L 425.235607 282.398311 
L 416.980809 282.398311 
L 408.726012 282.398311 
L 400.471214 282.398311 
L 392.216417 282.398311 
L 383.961619 282.398311 
L 375.706821 282.398311 
L 367.452024 282.398311 
L 359.197226 282.398311 
L 350.942428 282.398311 
L 342.687631 282.398311 
L 334.432833 282.398311 
L 326.178035 282.398311 
L 317.923238 282.398311 
L 309.66844 282.398311 
L 301.413642 282.398311 
L 293.158845 282.398311 
L 284.904047 282.398311 
L 276.64925 282.398311 
L 268.394452 282.398311 
L 260.139654 282.398311 
L 251.884857 282.398311 
L 243.630059 282.398311 
L 235.375261 282.398311 
L 227.120464 282.398311 
L 218.865666 282.398311 
L 210.610868 282.398311 
L 202.356071 282.398311 
L 194.101273 282.398311 
L 185.846475 282.398311 
L 177.591678 282.398311 
L 169.33688 282.398311 
L 161.082083 282.398311 
L 152.827285 282.398311 
L 144.572487 282.398311 
L 136.31769 282.398311 
L 128.062892 282.398311 
L 119.808094 282.398311 
L 111.553297 282.398311 
L 103.298499 282.398311 
L 95.043701 282.398311 
L 86.788904 282.398311 
L 78.534106 282.398311 
L 70.279308 282.398311 
L 62.024511 282.398311 
L 53.769713 282.398311 
z
" clip-path="url(#p2e81ecd357)" style="fill: url(#h8a15363c67); fill-opacity: 0.2"/>
   </g>
   <g id="PolyCollection_2">
    <path d="M 53.769713 8.952666 
L 53.769713 282.398311 
L 62.024511 301.004756 
L 70.279308 282.398311 
L 78.534106 270.763631 
L 86.788904 261.983338 
L 95.043701 254.767088 
L 103.298499 248.54013 
L 111.553297 242.995873 
L 119.808094 237.951309 
L 128.062892 233.288395 
L 136.31769 228.926532 
L 144.572487 224.808231 
L 152.827285 220.891046 
L 161.082083 217.142742 
L 169.33688 213.538261 
L 177.591678 210.057741 
L 185.846475 206.685169 
L 194.101273 203.407448 
L 202.356071 200.213728 
L 210.610868 197.09492 
L 218.865666 194.043337 
L 227.120464 191.052415 
L 235.375261 188.116508 
L 243.630059 185.230724 
L 251.884857 182.390795 
L 260.139654 179.592976 
L 268.394452 176.833963 
L 276.64925 174.110826 
L 284.904047 171.420955 
L 293.158845 168.762014 
L 301.413642 166.131907 
L 309.66844 163.528742 
L 317.923238 160.950808 
L 326.178035 158.396551 
L 334.432833 155.864558 
L 342.687631 153.353539 
L 350.942428 150.86231 
L 359.197226 148.389788 
L 367.452024 145.934975 
L 375.706821 143.49695 
L 383.961619 141.074864 
L 392.216417 138.667929 
L 400.471214 136.275414 
L 408.726012 133.896642 
L 416.980809 131.53098 
L 425.235607 129.177839 
L 433.490405 126.836668 
L 441.745202 124.506953 
L 450 122.188211 
L 458.254798 119.87999 
L 458.254798 8.952666 
L 458.254798 8.952666 
L 450 8.952666 
L 441.745202 8.952666 
L 433.490405 8.952666 
L 425.235607 8.952666 
L 416.980809 8.952666 
L 408.726012 8.952666 
L 400.471214 8.952666 
L 392.216417 8.952666 
L 383.961619 8.952666 
L 375.706821 8.952666 
L 367.452024 8.952666 
L 359.197226 8.952666 
L 350.942428 8.952666 
L 342.687631 8.952666 
L 334.432833 8.952666 
L 326.178035 8.952666 
L 317.923238 8.952666 
L 309.66844 8.952666 
L 301.413642 8.952666 
L 293.158845 8.952666 
L 284.904047 8.952666 
L 276.64925 8.952666 
L 268.394452 8.952666 
L 260.139654 8.952666 
L 251.884857 8.952666 
L 243.630059 8.952666 
L 235.375261 8.952666 
L 227.120464 8.952666 
L 218.865666 8.952666 
L 210.610868 8.952666 
L 202.356071 8.952666 
L 194.101273 8.952666 
L 185.846475 8.952666 
L 177.591678 8.952666 
L 169.33688 8.952666 
L 161.082083 8.952666 
L 152.827285 8.952666 
L 144.572487 8.952666 
L 136.31769 8.952666 
L 128.062892 8.952666 
L 119.808094 8.952666 
L 111.553297 8.952666 
L 103.298499 8.952666 
L 95.043701 8.952666 
L 86.788904 8.952666 
L 78.534106 8.952666 
L 70.279308 8.952666 
L 62.024511 8.952666 
L 53.769713 8.952666 
z
" clip-path="url(#p2e81ecd357)" style="fill: #008000; fill-opacity: 0.2"/>
   </g>
   <g id="matplotlib.axis_1">
    <g id="xtick_1">
     <g id="line2d_1">
      <defs>
       <path id="m5189b30890" d="M 0 0 
L 0 3.5 
" style="stroke: #000000; stroke-width: 0.8"/>
      </defs>
      <g>
       <use xlink:href="#m5189b30890" x="53.769713" y="282.398311" style="stroke: #000000; stroke-width: 0.8"/>
      </g>
     </g>
     <g id="text_1">
      <!-- $\mathdefault{0}$ -->
      <g transform="translate(48.743761 304.619004) scale(0.22 -0.22)">
       <defs>
        <path id="CMR17-30" d="M 2688 2025 
C 2688 2416 2682 3080 2413 3591 
C 2176 4039 1798 4198 1466 4198 
C 1158 4198 768 4058 525 3597 
C 269 3118 243 2524 243 2025 
C 243 1661 250 1106 448 619 
C 723 -39 1216 -128 1466 -128 
C 1760 -128 2208 -7 2470 600 
C 2662 1042 2688 1559 2688 2025 
z
M 1466 -26 
C 1056 -26 813 325 723 812 
C 653 1188 653 1738 653 2096 
C 653 2588 653 2997 736 3387 
C 858 3929 1216 4096 1466 4096 
C 1728 4096 2067 3923 2189 3400 
C 2272 3036 2278 2607 2278 2096 
C 2278 1680 2278 1169 2202 792 
C 2067 95 1690 -26 1466 -26 
z
" transform="scale(0.015625)"/>
       </defs>
       <use xlink:href="#CMR17-30" transform="scale(0.996264)"/>
      </g>
     </g>
    </g>
    <g id="xtick_2">
     <g id="line2d_2">
      <g>
       <use xlink:href="#m5189b30890" x="136.31769" y="282.398311" style="stroke: #000000; stroke-width: 0.8"/>
      </g>
     </g>
     <g id="text_2">
      <!-- $\mathdefault{5}$ -->
      <g transform="translate(131.291737 304.619004) scale(0.22 -0.22)">
       <defs>
        <path id="CMR17-35" d="M 730 3692 
C 794 3666 1056 3584 1325 3584 
C 1920 3584 2246 3911 2432 4100 
C 2432 4157 2432 4192 2394 4192 
C 2387 4192 2374 4192 2323 4163 
C 2099 4058 1837 3973 1517 3973 
C 1325 3973 1037 3999 723 4139 
C 653 4171 640 4171 634 4171 
C 602 4171 595 4164 595 4037 
L 595 2203 
C 595 2089 595 2057 659 2057 
C 691 2057 704 2070 736 2114 
C 941 2401 1222 2522 1542 2522 
C 1766 2522 2246 2382 2246 1289 
C 2246 1085 2246 715 2054 421 
C 1894 159 1645 25 1370 25 
C 947 25 518 320 403 814 
C 429 807 480 795 506 795 
C 589 795 749 840 749 1038 
C 749 1210 627 1280 506 1280 
C 358 1280 262 1190 262 1011 
C 262 454 704 -128 1382 -128 
C 2042 -128 2669 440 2669 1264 
C 2669 2030 2170 2624 1549 2624 
C 1222 2624 947 2503 730 2274 
L 730 3692 
z
" transform="scale(0.015625)"/>
       </defs>
       <use xlink:href="#CMR17-35" transform="scale(0.996264)"/>
      </g>
     </g>
    </g>
    <g id="xtick_3">
     <g id="line2d_3">
      <g>
       <use xlink:href="#m5189b30890" x="218.865666" y="282.398311" style="stroke: #000000; stroke-width: 0.8"/>
      </g>
     </g>
     <g id="text_3">
      <!-- $\mathdefault{10}$ -->
      <g transform="translate(208.813761 304.619004) scale(0.22 -0.22)">
       <defs>
        <path id="CMR17-31" d="M 1702 4058 
C 1702 4192 1696 4192 1606 4192 
C 1357 3916 979 3827 621 3827 
C 602 3827 570 3827 563 3808 
C 557 3795 557 3782 557 3648 
C 755 3648 1088 3686 1344 3839 
L 1344 461 
C 1344 236 1331 160 781 160 
L 589 160 
L 589 0 
C 896 0 1216 0 1523 0 
C 1830 0 2150 0 2458 0 
L 2458 160 
L 2266 160 
C 1715 160 1702 230 1702 458 
L 1702 4058 
z
" transform="scale(0.015625)"/>
       </defs>
       <use xlink:href="#CMR17-31" transform="scale(0.996264)"/>
       <use xlink:href="#CMR17-30" transform="translate(45.690477 0) scale(0.996264)"/>
      </g>
     </g>
    </g>
    <g id="xtick_4">
     <g id="line2d_4">
      <g>
       <use xlink:href="#m5189b30890" x="301.413642" y="282.398311" style="stroke: #000000; stroke-width: 0.8"/>
      </g>
     </g>
     <g id="text_4">
      <!-- $\mathdefault{15}$ -->
      <g transform="translate(291.361737 304.619004) scale(0.22 -0.22)">
       <use xlink:href="#CMR17-31" transform="scale(0.996264)"/>
       <use xlink:href="#CMR17-35" transform="translate(45.690477 0) scale(0.996264)"/>
      </g>
     </g>
    </g>
    <g id="xtick_5">
     <g id="line2d_5">
      <g>
       <use xlink:href="#m5189b30890" x="383.961619" y="282.398311" style="stroke: #000000; stroke-width: 0.8"/>
      </g>
     </g>
     <g id="text_5">
      <!-- $\mathdefault{20}$ -->
      <g transform="translate(373.909714 304.619004) scale(0.22 -0.22)">
       <defs>
        <path id="CMR17-32" d="M 2669 989 
L 2554 989 
C 2490 536 2438 459 2413 420 
C 2381 369 1920 369 1830 369 
L 602 369 
C 832 619 1280 1072 1824 1597 
C 2214 1967 2669 2402 2669 3035 
C 2669 3790 2067 4224 1395 4224 
C 691 4224 262 3604 262 3030 
C 262 2780 448 2748 525 2748 
C 589 2748 781 2787 781 3010 
C 781 3207 614 3264 525 3264 
C 486 3264 448 3258 422 3245 
C 544 3790 915 4058 1306 4058 
C 1862 4058 2227 3617 2227 3035 
C 2227 2479 1901 2000 1536 1584 
L 262 146 
L 262 0 
L 2515 0 
L 2669 989 
z
" transform="scale(0.015625)"/>
       </defs>
       <use xlink:href="#CMR17-32" transform="scale(0.996264)"/>
       <use xlink:href="#CMR17-30" transform="translate(45.690477 0) scale(0.996264)"/>
      </g>
     </g>
    </g>
    <g id="text_6">
     <!-- \bf{Initial antibiotic concentration ($\mu$g/ml)} -->
     <g transform="translate(40.964056 329.320548) scale(0.22 -0.22)">
      <defs>
       <path id="CMBX12-49" d="M 1760 4085 
L 2477 4085 
L 2477 4352 
C 2246 4352 1606 4352 1338 4352 
C 1069 4352 429 4352 198 4352 
L 198 4085 
L 915 4085 
L 915 267 
L 198 267 
L 198 0 
C 429 0 1069 0 1338 0 
C 1606 0 2246 0 2477 0 
L 2477 267 
L 1760 267 
L 1760 4085 
z
" transform="scale(0.015625)"/>
       <path id="CMBX12-6e" d="M 3398 1924 
C 3398 2525 3136 2834 2432 2834 
C 1971 2834 1574 2615 1357 2143 
L 1350 2143 
L 1350 2816 
L 269 2816 
L 269 2517 
C 666 2517 710 2517 710 2270 
L 710 260 
L 269 260 
L 269 -13 
C 416 0 877 0 1056 0 
C 1235 0 1702 0 1850 -13 
L 1850 260 
L 1408 260 
L 1408 1607 
C 1408 2289 1920 2624 2330 2624 
C 2566 2624 2701 2473 2701 1993 
L 2701 260 
L 2259 260 
L 2259 -13 
C 2406 0 2867 0 3046 0 
C 3226 0 3693 0 3840 -13 
L 3840 260 
L 3398 260 
L 3398 1924 
z
" transform="scale(0.015625)"/>
       <path id="CMBX12-69" d="M 1427 3958 
C 1427 4219 1216 4416 966 4416 
C 704 4416 506 4200 506 3958 
C 506 3716 704 3500 966 3500 
C 1216 3500 1427 3697 1427 3958 
z
M 301 2816 
L 301 2517 
C 678 2517 723 2517 723 2270 
L 723 260 
L 282 260 
L 282 -13 
C 429 0 870 0 1043 0 
C 1222 0 1632 0 1786 -13 
L 1786 260 
L 1389 260 
L 1389 2816 
L 301 2816 
z
" transform="scale(0.015625)"/>
       <path id="CMBX12-74" d="M 1350 2560 
L 2272 2560 
L 2272 2833 
L 1350 2833 
L 1350 4032 
L 1082 4032 
C 1075 3405 768 2776 134 2776 
L 134 2560 
L 653 2560 
L 653 789 
C 653 114 1178 -32 1638 -32 
C 2112 -32 2394 325 2394 795 
L 2394 1133 
L 2125 1133 
L 2125 802 
C 2125 381 1933 197 1734 197 
C 1350 197 1350 624 1350 770 
L 1350 2560 
z
" transform="scale(0.015625)"/>
       <path id="CMBX12-61" d="M 2944 1898 
C 2944 2484 2477 2879 1574 2879 
C 1216 2879 461 2879 461 2334 
C 461 2061 666 1945 838 1945 
C 1030 1945 1216 2079 1216 2323 
C 1216 2445 1171 2559 1062 2630 
C 1274 2688 1427 2688 1549 2688 
C 1984 2688 2246 2445 2246 1919 
L 2246 1663 
C 1235 1663 218 1382 218 676 
C 218 95 960 -32 1402 -32 
C 1894 -32 2208 233 2336 510 
C 2336 274 2336 0 2982 0 
L 3309 0 
C 3443 0 3494 0 3494 145 
C 3494 273 3437 273 3347 273 
C 2944 273 2944 374 2944 522 
L 2944 1898 
z
M 2246 882 
C 2246 291 1709 178 1504 178 
C 1190 178 928 390 928 686 
C 928 1273 1619 1472 2246 1472 
L 2246 882 
z
" transform="scale(0.015625)"/>
       <path id="CMBX12-6c" d="M 1389 4416 
L 282 4416 
L 282 4117 
C 678 4117 723 4117 723 3866 
L 723 260 
L 282 260 
L 282 -13 
C 429 0 883 0 1056 0 
C 1229 0 1683 0 1830 -13 
L 1830 260 
L 1389 260 
L 1389 4416 
z
" transform="scale(0.015625)"/>
       <path id="CMBX12-62" d="M 1331 4416 
L 224 4416 
L 224 4117 
C 621 4117 666 4117 666 3867 
L 666 0 
L 934 0 
C 1043 123 1152 247 1254 376 
C 1581 38 1933 -32 2189 -32 
C 3072 -32 3750 504 3750 1431 
C 3750 2305 3149 2880 2272 2880 
C 1894 2880 1594 2759 1331 2555 
L 1331 4416 
z
M 1363 2248 
C 1587 2555 1920 2670 2189 2670 
C 2982 2670 2982 1859 2982 1437 
C 2982 1149 2982 785 2829 548 
C 2630 241 2330 178 2125 178 
C 1690 178 1453 484 1363 625 
L 1363 2248 
z
" transform="scale(0.015625)"/>
       <path id="CMBX12-6f" d="M 3392 1395 
C 3392 2252 2803 2880 1798 2880 
C 755 2880 198 2220 198 1395 
C 198 565 787 -32 1792 -32 
C 2835 -32 3392 596 3392 1395 
z
M 1798 197 
C 966 197 966 939 966 1459 
C 966 1757 966 2074 1088 2303 
C 1229 2556 1517 2670 1792 2670 
C 2157 2670 2387 2499 2496 2322 
C 2624 2093 2624 1763 2624 1459 
C 2624 932 2624 197 1798 197 
z
" transform="scale(0.015625)"/>
       <path id="CMBX12-63" d="M 2995 753 
C 2995 829 2925 829 2861 829 
C 2758 829 2752 823 2720 747 
C 2675 625 2502 197 1914 197 
C 1011 197 1011 1166 1011 1453 
C 1011 1829 1018 2664 1856 2664 
C 1901 2664 2278 2664 2278 2632 
C 2278 2624 2272 2618 2259 2612 
C 2240 2593 2157 2496 2157 2334 
C 2157 2064 2374 1954 2534 1954 
C 2669 1954 2912 2039 2912 2346 
C 2912 2880 2176 2880 1830 2880 
C 691 2880 243 2145 243 1414 
C 243 552 851 -32 1792 -32 
C 2797 -32 2995 708 2995 753 
z
" transform="scale(0.015625)"/>
       <path id="CMBX12-65" d="M 2893 1408 
C 3040 1408 3078 1408 3078 1567 
C 3078 1758 3034 2233 2739 2532 
C 2470 2798 2112 2880 1741 2880 
C 742 2880 198 2233 198 1434 
C 198 545 858 -32 1824 -32 
C 2790 -32 3078 640 3078 748 
C 3078 843 2982 843 2944 843 
C 2842 843 2835 824 2797 742 
C 2630 330 2208 197 1901 197 
C 973 197 966 1053 966 1408 
L 2893 1408 
z
M 966 1593 
C 979 1852 986 2100 1120 2328 
C 1242 2531 1466 2670 1741 2670 
C 2426 2670 2483 1909 2490 1593 
L 966 1593 
z
" transform="scale(0.015625)"/>
       <path id="CMBX12-72" d="M 1331 1411 
C 1331 1619 1376 2624 2125 2624 
C 2035 2555 1990 2448 1990 2336 
C 1990 2079 2202 1972 2362 1972 
C 2522 1972 2733 2079 2733 2337 
C 2733 2658 2400 2834 2093 2834 
C 1587 2834 1370 2401 1280 2137 
L 1274 2137 
L 1274 2816 
L 224 2816 
L 224 2517 
C 621 2517 666 2517 666 2270 
L 666 260 
L 224 260 
L 224 -13 
C 371 0 851 0 1030 0 
C 1216 0 1734 0 1888 -13 
L 1888 260 
L 1331 260 
L 1331 1411 
z
" transform="scale(0.015625)"/>
       <path id="CMBX12-28" d="M 2394 -1524 
C 2394 -1498 2394 -1485 2272 -1371 
C 1555 -659 1280 461 1280 1580 
C 1280 2834 1594 3865 2310 4583 
C 2387 4659 2394 4666 2394 4691 
C 2394 4768 2317 4768 2285 4768 
C 2227 4768 2214 4768 2048 4634 
C 1126 3903 691 2732 691 1588 
C 691 417 1133 -722 2042 -1460 
C 2208 -1600 2221 -1600 2285 -1600 
C 2317 -1600 2394 -1600 2394 -1524 
z
" transform="scale(0.015625)"/>
       <path id="CMMI12-16" d="M 922 140 
C 1082 -6 1318 -64 1536 -64 
C 1946 -64 2227 208 2374 405 
C 2438 69 2707 -64 2931 -64 
C 3123 -64 3277 50 3392 277 
C 3494 493 3584 879 3584 903 
C 3584 935 3558 960 3520 960 
C 3462 960 3456 928 3430 834 
C 3334 461 3213 64 2950 64 
C 2765 64 2752 229 2752 358 
C 2752 504 2810 735 2854 926 
L 3034 1615 
C 3059 1737 3130 2023 3162 2139 
C 3200 2292 3270 2567 3270 2592 
C 3270 2688 3194 2752 3098 2752 
C 3040 2752 2906 2726 2854 2535 
L 2406 760 
C 2374 632 2374 619 2291 517 
C 2214 409 1965 64 1562 64 
C 1203 64 1088 326 1088 625 
C 1088 811 1146 1034 1171 1143 
L 1459 2293 
C 1491 2414 1542 2618 1542 2657 
C 1542 2759 1459 2816 1376 2816 
C 1318 2816 1178 2797 1126 2592 
L 198 -1107 
C 192 -1139 179 -1177 179 -1216 
C 179 -1312 256 -1376 352 -1376 
C 538 -1376 576 -1228 621 -1050 
L 922 140 
z
" transform="scale(0.015625)"/>
       <path id="CMBX12-67" d="M 832 1189 
C 1139 1024 1498 1024 1594 1024 
C 2477 1024 2829 1514 2829 1960 
C 2829 2285 2643 2515 2566 2578 
C 2752 2676 2906 2700 3014 2713 
C 2995 2682 2976 2658 2976 2578 
C 2976 2450 3066 2334 3232 2334 
C 3398 2334 3488 2455 3488 2588 
C 3488 2741 3373 2944 3104 2944 
C 2829 2944 2566 2803 2432 2682 
C 2170 2834 1920 2891 1594 2891 
C 710 2891 358 2403 358 1957 
C 358 1760 422 1501 691 1285 
C 582 1161 467 933 467 699 
C 467 420 614 180 749 76 
C 595 39 198 -105 198 -461 
C 198 -830 614 -1248 1792 -1248 
C 2854 -1248 3392 -910 3392 -439 
C 3392 114 3021 295 2861 370 
C 2554 521 2144 521 1581 521 
C 1421 521 1139 521 1107 527 
C 832 575 755 829 755 957 
C 755 1010 762 1107 832 1189 
z
M 1594 1227 
C 1037 1227 1037 1665 1037 1957 
C 1037 2250 1037 2688 1594 2688 
C 2150 2688 2150 2250 2150 1957 
C 2150 1665 2150 1227 1594 1227 
z
M 1952 -64 
C 2419 -64 2867 -145 2867 -467 
C 2867 -685 2643 -1045 1798 -1045 
C 954 -1045 723 -697 723 -461 
C 723 -64 1126 -64 1222 -64 
L 1952 -64 
z
" transform="scale(0.015625)"/>
       <path id="CMBX12-2f" d="M 3162 4475 
C 3194 4551 3194 4577 3194 4590 
C 3194 4704 3104 4768 3021 4768 
C 2899 4768 2874 4691 2835 4602 
L 429 -1307 
C 397 -1383 397 -1409 397 -1421 
C 397 -1536 486 -1600 570 -1600 
C 691 -1600 717 -1530 755 -1434 
L 3162 4475 
z
" transform="scale(0.015625)"/>
       <path id="CMBX12-6d" d="M 5402 1924 
C 5402 2506 5152 2834 4435 2834 
C 3789 2834 3488 2407 3386 2206 
C 3283 2740 2848 2834 2438 2834 
C 1824 2834 1491 2445 1357 2143 
L 1350 2143 
L 1350 2816 
L 269 2816 
L 269 2517 
C 666 2517 710 2517 710 2270 
L 710 260 
L 269 260 
L 269 -13 
C 416 0 877 0 1056 0 
C 1235 0 1702 0 1850 -13 
L 1850 260 
L 1408 260 
L 1408 1607 
C 1408 2296 1926 2624 2330 2624 
C 2566 2624 2707 2485 2707 1993 
L 2707 260 
L 2266 260 
L 2266 -13 
C 2413 0 2874 0 3053 0 
C 3232 0 3699 0 3846 -13 
L 3846 260 
L 3405 260 
L 3405 1607 
C 3405 2296 3923 2624 4326 2624 
C 4563 2624 4704 2485 4704 1993 
L 4704 260 
L 4262 260 
L 4262 -13 
C 4410 0 4870 0 5050 0 
C 5229 0 5696 0 5843 -13 
L 5843 260 
L 5402 260 
L 5402 1924 
z
" transform="scale(0.015625)"/>
       <path id="CMBX12-29" d="M 2099 1581 
C 2099 2751 1658 3890 749 4628 
C 582 4768 570 4768 506 4768 
C 474 4768 397 4768 397 4692 
C 397 4667 397 4654 518 4540 
C 1235 3827 1510 2708 1510 1588 
C 1510 334 1197 -696 480 -1415 
C 403 -1492 397 -1498 397 -1524 
C 397 -1600 474 -1600 506 -1600 
C 563 -1600 576 -1600 742 -1466 
C 1664 -735 2099 436 2099 1581 
z
" transform="scale(0.015625)"/>
      </defs>
      <use xlink:href="#CMBX12-49" transform="scale(0.996264)"/>
      <use xlink:href="#CMBX12-6e" transform="translate(41.741708 0) scale(0.996264)"/>
      <use xlink:href="#CMBX12-69" transform="translate(104.008208 0) scale(0.996264)"/>
      <use xlink:href="#CMBX12-74" transform="translate(135.141459 0) scale(0.996264)"/>
      <use xlink:href="#CMBX12-69" transform="translate(178.728009 0) scale(0.996264)"/>
      <use xlink:href="#CMBX12-61" transform="translate(209.861259 0) scale(0.996264)"/>
      <use xlink:href="#CMBX12-6c" transform="translate(264.344447 0) scale(0.996264)"/>
      <use xlink:href="#CMBX12-61" transform="translate(332.837598 0) scale(0.996264)"/>
      <use xlink:href="#CMBX12-6e" transform="translate(387.320786 0) scale(0.996264)"/>
      <use xlink:href="#CMBX12-74" transform="translate(446.473962 0) scale(0.996264)"/>
      <use xlink:href="#CMBX12-69" transform="translate(490.060512 0) scale(0.996264)"/>
      <use xlink:href="#CMBX12-62" transform="translate(521.193763 0) scale(0.996264)"/>
      <use xlink:href="#CMBX12-69" transform="translate(583.460263 0) scale(0.996264)"/>
      <use xlink:href="#CMBX12-6f" transform="translate(614.593513 0) scale(0.996264)"/>
      <use xlink:href="#CMBX12-74" transform="translate(670.633364 0) scale(0.996264)"/>
      <use xlink:href="#CMBX12-69" transform="translate(714.219914 0) scale(0.996264)"/>
      <use xlink:href="#CMBX12-63" transform="translate(745.353165 0) scale(0.996264)"/>
      <use xlink:href="#CMBX12-63" transform="translate(832.526266 0) scale(0.996264)"/>
      <use xlink:href="#CMBX12-6f" transform="translate(882.339466 0) scale(0.996264)"/>
      <use xlink:href="#CMBX12-6e" transform="translate(938.379317 0) scale(0.996264)"/>
      <use xlink:href="#CMBX12-63" transform="translate(1000.645817 0) scale(0.996264)"/>
      <use xlink:href="#CMBX12-65" transform="translate(1050.459018 0) scale(0.996264)"/>
      <use xlink:href="#CMBX12-6e" transform="translate(1101.598285 0) scale(0.996264)"/>
      <use xlink:href="#CMBX12-74" transform="translate(1160.751461 0) scale(0.996264)"/>
      <use xlink:href="#CMBX12-72" transform="translate(1204.338011 0) scale(0.996264)"/>
      <use xlink:href="#CMBX12-61" transform="translate(1250.115518 0) scale(0.996264)"/>
      <use xlink:href="#CMBX12-74" transform="translate(1304.598706 0) scale(0.996264)"/>
      <use xlink:href="#CMBX12-69" transform="translate(1348.185257 0) scale(0.996264)"/>
      <use xlink:href="#CMBX12-6f" transform="translate(1379.318507 0) scale(0.996264)"/>
      <use xlink:href="#CMBX12-6e" transform="translate(1435.358358 0) scale(0.996264)"/>
      <use xlink:href="#CMBX12-28" transform="translate(1534.984759 0) scale(0.996264)"/>
      <use xlink:href="#CMMI12-16" transform="translate(1578.571309 0) scale(0.996264)"/>
      <use xlink:href="#CMBX12-67" transform="translate(1637.262731 0) scale(0.996264)"/>
      <use xlink:href="#CMBX12-2f" transform="translate(1693.302581 0) scale(0.996264)"/>
      <use xlink:href="#CMBX12-6d" transform="translate(1749.342432 0) scale(0.996264)"/>
      <use xlink:href="#CMBX12-6c" transform="translate(1842.742183 0) scale(0.996264)"/>
      <use xlink:href="#CMBX12-29" transform="translate(1873.875433 0) scale(0.996264)"/>
     </g>
    </g>
   </g>
   <g id="matplotlib.axis_2">
    <g id="ytick_1">
     <g id="line2d_6">
      <defs>
       <path id="m42d43893ce" d="M 0 0 
L -3.5 0 
" style="stroke: #000000; stroke-width: 0.8"/>
      </defs>
      <g>
       <use xlink:href="#m42d43893ce" x="53.769713" y="282.398311" style="stroke: #000000; stroke-width: 0.8"/>
      </g>
     </g>
     <g id="text_7">
      <!-- $\mathdefault{0}$ -->
      <g transform="translate(36.717808 290.008657) scale(0.22 -0.22)">
       <use xlink:href="#CMR17-30" transform="scale(0.996264)"/>
      </g>
     </g>
    </g>
    <g id="ytick_2">
     <g id="line2d_7">
      <g>
       <use xlink:href="#m42d43893ce" x="53.769713" y="226.133002" style="stroke: #000000; stroke-width: 0.8"/>
      </g>
     </g>
     <g id="text_8">
      <!-- $\mathdefault{2}$ -->
      <g transform="translate(36.717808 233.743349) scale(0.22 -0.22)">
       <use xlink:href="#CMR17-32" transform="scale(0.996264)"/>
      </g>
     </g>
    </g>
    <g id="ytick_3">
     <g id="line2d_8">
      <g>
       <use xlink:href="#m42d43893ce" x="53.769713" y="169.867693" style="stroke: #000000; stroke-width: 0.8"/>
      </g>
     </g>
     <g id="text_9">
      <!-- $\mathdefault{4}$ -->
      <g transform="translate(36.717808 177.47804) scale(0.22 -0.22)">
       <defs>
        <path id="CMR17-34" d="M 2150 4122 
C 2150 4256 2144 4256 2029 4256 
L 128 1254 
L 128 1088 
L 1779 1088 
L 1779 457 
C 1779 224 1766 160 1318 160 
L 1197 160 
L 1197 0 
C 1402 0 1747 0 1965 0 
C 2182 0 2528 0 2733 0 
L 2733 160 
L 2611 160 
C 2163 160 2150 224 2150 457 
L 2150 1088 
L 2803 1088 
L 2803 1254 
L 2150 1254 
L 2150 4122 
z
M 1798 3703 
L 1798 1254 
L 256 1254 
L 1798 3703 
z
" transform="scale(0.015625)"/>
       </defs>
       <use xlink:href="#CMR17-34" transform="scale(0.996264)"/>
      </g>
     </g>
    </g>
    <g id="ytick_4">
     <g id="line2d_9">
      <g>
       <use xlink:href="#m42d43893ce" x="53.769713" y="113.602385" style="stroke: #000000; stroke-width: 0.8"/>
      </g>
     </g>
     <g id="text_10">
      <!-- $\mathdefault{6}$ -->
      <g transform="translate(36.717808 121.212732) scale(0.22 -0.22)">
       <defs>
        <path id="CMR17-36" d="M 678 2176 
C 678 3690 1395 4032 1811 4032 
C 1946 4032 2272 4009 2400 3776 
C 2298 3776 2106 3776 2106 3553 
C 2106 3381 2246 3323 2336 3323 
C 2394 3323 2566 3348 2566 3560 
C 2566 3954 2246 4179 1805 4179 
C 1043 4179 243 3390 243 1984 
C 243 253 966 -128 1478 -128 
C 2099 -128 2688 427 2688 1283 
C 2688 2081 2170 2662 1517 2662 
C 1126 2662 838 2407 678 1960 
L 678 2176 
z
M 1478 25 
C 691 25 691 1200 691 1436 
C 691 1896 909 2560 1504 2560 
C 1613 2560 1926 2560 2138 2120 
C 2253 1870 2253 1609 2253 1289 
C 2253 944 2253 690 2118 434 
C 1978 171 1773 25 1478 25 
z
" transform="scale(0.015625)"/>
       </defs>
       <use xlink:href="#CMR17-36" transform="scale(0.996264)"/>
      </g>
     </g>
    </g>
    <g id="ytick_5">
     <g id="line2d_10">
      <g>
       <use xlink:href="#m42d43893ce" x="53.769713" y="57.337076" style="stroke: #000000; stroke-width: 0.8"/>
      </g>
     </g>
     <g id="text_11">
      <!-- $\mathdefault{8}$ -->
      <g transform="translate(36.717808 64.947423) scale(0.22 -0.22)">
       <defs>
        <path id="CMR17-38" d="M 1741 2264 
C 2144 2467 2554 2773 2554 3263 
C 2554 3841 1990 4179 1472 4179 
C 890 4179 378 3759 378 3180 
C 378 3021 416 2747 666 2505 
C 730 2442 998 2251 1171 2130 
C 883 1983 211 1634 211 934 
C 211 279 838 -128 1459 -128 
C 2144 -128 2720 362 2720 1010 
C 2720 1590 2330 1857 2074 2029 
L 1741 2264 
z
M 902 2822 
C 851 2854 595 3051 595 3351 
C 595 3739 998 4032 1459 4032 
C 1965 4032 2336 3676 2336 3262 
C 2336 2669 1670 2331 1638 2331 
C 1632 2331 1626 2331 1574 2370 
L 902 2822 
z
M 2080 1519 
C 2176 1449 2483 1240 2483 851 
C 2483 381 2010 25 1472 25 
C 890 25 448 438 448 940 
C 448 1443 838 1862 1280 2060 
L 2080 1519 
z
" transform="scale(0.015625)"/>
       </defs>
       <use xlink:href="#CMR17-38" transform="scale(0.996264)"/>
      </g>
     </g>
    </g>
    <g id="text_12">
     <!-- \bf{$\rho$ (initial cells/ml)} -->
     <g transform="translate(27.238356 253.159905) rotate(-90) scale(0.22 -0.22)">
      <defs>
       <path id="CMMI12-1a" d="M 198 -1107 
C 192 -1139 179 -1177 179 -1216 
C 179 -1312 256 -1376 352 -1376 
C 448 -1376 538 -1312 576 -1222 
C 602 -1164 781 -397 986 390 
C 1114 70 1350 -64 1600 -64 
C 2323 -64 3142 830 3142 1795 
C 3142 2478 2726 2816 2285 2816 
C 1722 2816 1037 2235 826 1385 
L 198 -1107 
z
M 1594 64 
C 1158 64 1050 569 1050 645 
C 1050 684 1210 1295 1229 1391 
C 1555 2670 2182 2670 2278 2670 
C 2566 2670 2726 2410 2726 2036 
C 2726 1712 2554 1084 2445 819 
C 2253 381 1920 64 1594 64 
z
" transform="scale(0.015625)"/>
       <path id="CMBX12-73" d="M 2413 2715 
C 2413 2836 2413 2880 2317 2880 
C 2278 2880 2266 2880 2170 2823 
C 2144 2804 2074 2759 2042 2740 
C 1862 2842 1626 2880 1395 2880 
C 1203 2880 243 2880 243 2056 
C 243 1389 1037 1250 1235 1218 
C 1408 1187 1619 1148 1645 1148 
C 1901 1091 2157 932 2157 666 
C 2157 178 1574 178 1440 178 
C 1114 178 710 279 531 896 
C 493 1023 486 1023 378 1023 
C 243 1023 243 1004 243 858 
L 243 132 
C 243 12 243 -32 339 -32 
C 384 -32 397 -32 525 70 
L 691 191 
C 979 -32 1325 -32 1440 -32 
C 1792 -32 2592 44 2592 888 
C 2592 1192 2426 1402 2298 1516 
C 2035 1731 1818 1770 1472 1833 
C 1062 1903 678 1973 678 2277 
C 678 2689 1248 2689 1382 2689 
C 2093 2689 2131 2245 2144 2087 
C 2150 2005 2202 2005 2278 2005 
C 2413 2005 2413 2024 2413 2170 
L 2413 2715 
z
" transform="scale(0.015625)"/>
      </defs>
      <use xlink:href="#CMMI12-1a" transform="scale(0.996264)"/>
      <use xlink:href="#CMBX12-28" transform="translate(87.674273 0) scale(0.996264)"/>
      <use xlink:href="#CMBX12-69" transform="translate(131.260824 0) scale(0.996264)"/>
      <use xlink:href="#CMBX12-6e" transform="translate(162.394074 0) scale(0.996264)"/>
      <use xlink:href="#CMBX12-69" transform="translate(224.660575 0) scale(0.996264)"/>
      <use xlink:href="#CMBX12-74" transform="translate(255.793825 0) scale(0.996264)"/>
      <use xlink:href="#CMBX12-69" transform="translate(299.380375 0) scale(0.996264)"/>
      <use xlink:href="#CMBX12-61" transform="translate(330.513626 0) scale(0.996264)"/>
      <use xlink:href="#CMBX12-6c" transform="translate(384.996814 0) scale(0.996264)"/>
      <use xlink:href="#CMBX12-63" transform="translate(453.489964 0) scale(0.996264)"/>
      <use xlink:href="#CMBX12-65" transform="translate(503.303165 0) scale(0.996264)"/>
      <use xlink:href="#CMBX12-6c" transform="translate(554.442432 0) scale(0.996264)"/>
      <use xlink:href="#CMBX12-6c" transform="translate(585.575682 0) scale(0.996264)"/>
      <use xlink:href="#CMBX12-73" transform="translate(616.708933 0) scale(0.996264)"/>
      <use xlink:href="#CMBX12-2f" transform="translate(660.91827 0) scale(0.996264)"/>
      <use xlink:href="#CMBX12-6d" transform="translate(716.95812 0) scale(0.996264)"/>
      <use xlink:href="#CMBX12-6c" transform="translate(810.357871 0) scale(0.996264)"/>
      <use xlink:href="#CMBX12-29" transform="translate(841.491122 0) scale(0.996264)"/>
     </g>
    </g>
    <g id="text_13">
     <!-- $\times\mathdefault{10^{7}}\mathdefault{}$ -->
     <g transform="translate(53.769713 26.204422) scale(0.22 -0.22)">
      <defs>
       <path id="CMSY10-2" d="M 2490 1785 
L 1210 3059 
C 1133 3136 1120 3148 1069 3148 
C 1005 3148 941 3091 941 3020 
C 941 2976 954 2963 1024 2892 
L 2304 1606 
L 1024 320 
C 954 249 941 236 941 192 
C 941 121 1005 64 1069 64 
C 1120 64 1133 76 1210 153 
L 2483 1427 
L 3808 102 
C 3821 96 3866 64 3904 64 
C 3981 64 4032 121 4032 192 
C 4032 204 4032 230 4013 262 
C 4006 275 2989 1280 2669 1606 
L 3840 2777 
C 3872 2816 3968 2899 4000 2937 
C 4006 2950 4032 2976 4032 3020 
C 4032 3091 3981 3148 3904 3148 
C 3853 3148 3827 3123 3757 3052 
L 2490 1785 
z
" transform="scale(0.015625)"/>
       <path id="CMR17-37" d="M 2886 3941 
L 2886 4081 
L 1382 4081 
C 634 4081 621 4165 595 4288 
L 480 4288 
L 294 3094 
L 410 3094 
C 429 3215 474 3540 550 3661 
C 589 3712 1062 3712 1171 3712 
L 2579 3712 
L 1869 2661 
C 1395 1954 1069 999 1069 165 
C 1069 89 1069 -128 1299 -128 
C 1530 -128 1530 89 1530 171 
L 1530 465 
C 1530 1508 1709 2196 2003 2636 
L 2886 3941 
z
" transform="scale(0.015625)"/>
      </defs>
      <use xlink:href="#CMSY10-2" transform="scale(0.996264)"/>
      <use xlink:href="#CMR17-31" transform="translate(77.487468 0) scale(0.996264)"/>
      <use xlink:href="#CMR17-30" transform="translate(123.177945 0) scale(0.996264)"/>
      <use xlink:href="#CMR17-37" transform="translate(168.868422 36.153639) scale(0.697382)"/>
     </g>
    </g>
   </g>
   <g id="line2d_11">
    <path d="M 62.024511 321.814116 
L 70.279308 282.398311 
L 78.534106 258.590935 
L 86.788904 241.173977 
L 95.043701 227.25861 
L 103.298499 215.558074 
L 111.553297 205.385973 
L 119.808094 196.332588 
L 128.062892 188.133644 
L 136.31769 180.608693 
L 144.572487 173.629032 
L 152.827285 167.09963 
L 161.082083 160.948318 
L 169.33688 155.119001 
L 177.591678 149.567207 
L 185.846475 144.257088 
L 194.101273 139.159321 
L 202.356071 134.249616 
L 210.610868 129.507626 
L 218.865666 124.916138 
L 227.120464 120.460459 
L 235.375261 116.127949 
L 243.630059 111.907654 
L 251.884857 107.790019 
L 260.139654 103.76666 
L 268.394452 99.830179 
L 276.64925 95.974019 
L 284.904047 92.192334 
L 293.158845 88.479897 
L 301.413642 84.832013 
L 309.66844 81.244446 
L 317.923238 77.713366 
L 326.178035 74.235296 
L 334.432833 70.807071 
L 342.687631 67.4258 
L 350.942428 64.088838 
L 359.197226 60.793756 
L 367.452024 57.53832 
L 375.706821 54.320471 
L 383.961619 51.138304 
L 392.216417 47.990058 
L 400.471214 44.874098 
L 408.726012 41.788903 
L 416.980809 38.73306 
L 425.235607 35.705249 
L 433.490405 32.704237 
L 441.745202 29.728872 
L 450 26.778074 
L 458.254798 23.85083 
" clip-path="url(#p2e81ecd357)" style="fill: none; stroke-dasharray: 14.8,6.4; stroke-dashoffset: 0; stroke: #000000; stroke-width: 4"/>
   </g>
   <g id="line2d_12">
    <defs>
     <path id="m05b9b6c5b5" d="M 0 1.5 
C 0.397805 1.5 0.77937 1.341951 1.06066 1.06066 
C 1.341951 0.77937 1.5 0.397805 1.5 0 
C 1.5 -0.397805 1.341951 -0.77937 1.06066 -1.06066 
C 0.77937 -1.341951 0.397805 -1.5 0 -1.5 
C -0.397805 -1.5 -0.77937 -1.341951 -1.06066 -1.06066 
C -1.341951 -0.77937 -1.5 -0.397805 -1.5 0 
C -1.5 0.397805 -1.341951 0.77937 -1.06066 1.06066 
C -0.77937 1.341951 -0.397805 1.5 0 1.5 
z
" style="stroke: #000000"/>
    </defs>
    <g clip-path="url(#p2e81ecd357)">
     <use xlink:href="#m05b9b6c5b5" x="62.024511" y="286.71399" style="stroke: #000000"/>
     <use xlink:href="#m05b9b6c5b5" x="70.279308" y="282.398311" style="stroke: #000000"/>
     <use xlink:href="#m05b9b6c5b5" x="78.534106" y="279.123193" style="stroke: #000000"/>
     <use xlink:href="#m05b9b6c5b5" x="86.788904" y="276.274103" style="stroke: #000000"/>
     <use xlink:href="#m05b9b6c5b5" x="95.043701" y="273.658453" style="stroke: #000000"/>
     <use xlink:href="#m05b9b6c5b5" x="103.298499" y="271.190458" style="stroke: #000000"/>
     <use xlink:href="#m05b9b6c5b5" x="111.553297" y="268.824358" style="stroke: #000000"/>
     <use xlink:href="#m05b9b6c5b5" x="119.808094" y="266.53284" style="stroke: #000000"/>
     <use xlink:href="#m05b9b6c5b5" x="128.062892" y="264.298285" style="stroke: #000000"/>
     <use xlink:href="#m05b9b6c5b5" x="136.31769" y="262.108662" style="stroke: #000000"/>
     <use xlink:href="#m05b9b6c5b5" x="144.572487" y="259.955392" style="stroke: #000000"/>
     <use xlink:href="#m05b9b6c5b5" x="152.827285" y="257.832139" style="stroke: #000000"/>
     <use xlink:href="#m05b9b6c5b5" x="161.082083" y="255.734093" style="stroke: #000000"/>
     <use xlink:href="#m05b9b6c5b5" x="169.33688" y="253.657512" style="stroke: #000000"/>
     <use xlink:href="#m05b9b6c5b5" x="177.591678" y="251.599433" style="stroke: #000000"/>
     <use xlink:href="#m05b9b6c5b5" x="185.846475" y="249.557466" style="stroke: #000000"/>
     <use xlink:href="#m05b9b6c5b5" x="194.101273" y="247.529656" style="stroke: #000000"/>
     <use xlink:href="#m05b9b6c5b5" x="202.356071" y="245.514383" style="stroke: #000000"/>
     <use xlink:href="#m05b9b6c5b5" x="210.610868" y="243.510291" style="stroke: #000000"/>
     <use xlink:href="#m05b9b6c5b5" x="218.865666" y="241.516232" style="stroke: #000000"/>
     <use xlink:href="#m05b9b6c5b5" x="227.120464" y="239.531228" style="stroke: #000000"/>
     <use xlink:href="#m05b9b6c5b5" x="235.375261" y="237.554435" style="stroke: #000000"/>
     <use xlink:href="#m05b9b6c5b5" x="243.630059" y="235.585122" style="stroke: #000000"/>
     <use xlink:href="#m05b9b6c5b5" x="251.884857" y="233.622654" style="stroke: #000000"/>
     <use xlink:href="#m05b9b6c5b5" x="260.139654" y="231.666471" style="stroke: #000000"/>
     <use xlink:href="#m05b9b6c5b5" x="268.394452" y="229.71608" style="stroke: #000000"/>
     <use xlink:href="#m05b9b6c5b5" x="276.64925" y="227.771043" style="stroke: #000000"/>
     <use xlink:href="#m05b9b6c5b5" x="284.904047" y="225.830971" style="stroke: #000000"/>
     <use xlink:href="#m05b9b6c5b5" x="293.158845" y="223.895516" style="stroke: #000000"/>
     <use xlink:href="#m05b9b6c5b5" x="301.413642" y="221.964365" style="stroke: #000000"/>
     <use xlink:href="#m05b9b6c5b5" x="309.66844" y="220.037234" style="stroke: #000000"/>
     <use xlink:href="#m05b9b6c5b5" x="317.923238" y="218.11387" style="stroke: #000000"/>
     <use xlink:href="#m05b9b6c5b5" x="326.178035" y="216.194039" style="stroke: #000000"/>
     <use xlink:href="#m05b9b6c5b5" x="334.432833" y="214.277532" style="stroke: #000000"/>
     <use xlink:href="#m05b9b6c5b5" x="342.687631" y="212.364154" style="stroke: #000000"/>
     <use xlink:href="#m05b9b6c5b5" x="350.942428" y="210.453731" style="stroke: #000000"/>
     <use xlink:href="#m05b9b6c5b5" x="359.197226" y="208.5461" style="stroke: #000000"/>
     <use xlink:href="#m05b9b6c5b5" x="367.452024" y="206.641111" style="stroke: #000000"/>
     <use xlink:href="#m05b9b6c5b5" x="375.706821" y="204.738629" style="stroke: #000000"/>
     <use xlink:href="#m05b9b6c5b5" x="383.961619" y="202.838525" style="stroke: #000000"/>
     <use xlink:href="#m05b9b6c5b5" x="392.216417" y="200.940683" style="stroke: #000000"/>
     <use xlink:href="#m05b9b6c5b5" x="400.471214" y="199.044993" style="stroke: #000000"/>
     <use xlink:href="#m05b9b6c5b5" x="408.726012" y="197.151354" style="stroke: #000000"/>
     <use xlink:href="#m05b9b6c5b5" x="416.980809" y="195.259672" style="stroke: #000000"/>
     <use xlink:href="#m05b9b6c5b5" x="425.235607" y="193.369858" style="stroke: #000000"/>
     <use xlink:href="#m05b9b6c5b5" x="433.490405" y="191.481832" style="stroke: #000000"/>
     <use xlink:href="#m05b9b6c5b5" x="441.745202" y="189.595515" style="stroke: #000000"/>
     <use xlink:href="#m05b9b6c5b5" x="450" y="187.710836" style="stroke: #000000"/>
     <use xlink:href="#m05b9b6c5b5" x="458.254798" y="185.827727" style="stroke: #000000"/>
    </g>
   </g>
   <g id="line2d_13">
    <path d="M 53.769713 282.398311 
L 62.024511 301.004756 
L 70.279308 282.398311 
L 78.534106 270.763631 
L 86.788904 261.983338 
L 95.043701 254.767088 
L 103.298499 248.54013 
L 111.553297 242.995873 
L 119.808094 237.951309 
L 128.062892 233.288395 
L 136.31769 228.926532 
L 144.572487 224.808231 
L 152.827285 220.891046 
L 161.082083 217.142742 
L 169.33688 213.538261 
L 177.591678 210.057741 
L 185.846475 206.685169 
L 194.101273 203.407448 
L 202.356071 200.213728 
L 210.610868 197.09492 
L 218.865666 194.043337 
L 227.120464 191.052415 
L 235.375261 188.116508 
L 243.630059 185.230724 
L 251.884857 182.390795 
L 260.139654 179.592976 
L 268.394452 176.833963 
L 276.64925 174.110826 
L 284.904047 171.420955 
L 293.158845 168.762014 
L 301.413642 166.131907 
L 309.66844 163.528742 
L 317.923238 160.950808 
L 326.178035 158.396551 
L 334.432833 155.864558 
L 342.687631 153.353539 
L 350.942428 150.86231 
L 359.197226 148.389788 
L 367.452024 145.934975 
L 375.706821 143.49695 
L 383.961619 141.074864 
L 392.216417 138.667929 
L 400.471214 136.275414 
L 408.726012 133.896642 
L 416.980809 131.53098 
L 425.235607 129.177839 
L 433.490405 126.836668 
L 441.745202 124.506953 
L 450 122.188211 
L 458.254798 119.87999 
" clip-path="url(#p2e81ecd357)" style="fill: none; stroke: #000000; stroke-width: 4; stroke-linecap: square"/>
   </g>
   <g id="patch_3">
    <path d="M 53.769713 282.398311 
L 53.769713 29.204422 
" style="fill: none; stroke: #000000; stroke-width: 0.8; stroke-linejoin: miter; stroke-linecap: square"/>
   </g>
   <g id="patch_4">
    <path d="M 450 282.398311 
L 450 29.204422 
" style="fill: none; stroke: #000000; stroke-width: 0.8; stroke-linejoin: miter; stroke-linecap: square"/>
   </g>
   <g id="patch_5">
    <path d="M 53.769713 282.398311 
L 450 282.398311 
" style="fill: none; stroke: #000000; stroke-width: 0.8; stroke-linejoin: miter; stroke-linecap: square"/>
   </g>
   <g id="patch_6">
    <path d="M 53.769713 29.204422 
L 450 29.204422 
" style="fill: none; stroke: #000000; stroke-width: 0.8; stroke-linejoin: miter; stroke-linecap: square"/>
   </g>
  </g>
 </g>
 <defs>
  <clipPath id="p2e81ecd357">
   <rect x="53.769713" y="29.204422" width="396.230287" height="253.193888"/>
  </clipPath>
 </defs>
 <defs>
  <pattern id="h8a15363c67" patternUnits="userSpaceOnUse" x="0" y="0" width="72" height="72">
   <rect x="0" y="0" width="73" height="73" fill="#ff0000"/>
   <path d="M -36 36 
L 36 -36 
M -30 42 
L 42 -30 
M -24 48 
L 48 -24 
M -18 54 
L 54 -18 
M -12 60 
L 60 -12 
M -6 66 
L 66 -6 
M 0 72 
L 72 0 
M 6 78 
L 78 6 
M 12 84 
L 84 12 
M 18 90 
L 90 18 
M 24 96 
L 96 24 
M 30 102 
L 102 30 
M 36 108 
L 108 36 
" style="fill: #ff0000; stroke: #ff0000; stroke-width: 1.0; stroke-linecap: butt; stroke-linejoin: miter"/>
  </pattern>
 </defs>
</svg>
